<svg width="450" height="450" viewBox="0 0 450 450" fill="none" xmlns="http://www.w3.org/2000/svg">
<circle cx="225" cy="225" r="225" fill="#670000"/>
<circle cx="225" cy="225" r="225" fill="url(#paint0_linear)"/>
<path d="M102.743 219.787C102.298 219.725 101.853 219.725 101.408 219.787C101.037 219.85 100.666 219.85 100.296 219.787C99.6281 219.538 99.2202 219.413 99.0719 219.413C98.9235 219.351 98.8493 219.257 98.8493 219.132C98.1077 219.195 97.6997 219.163 97.6256 219.039C97.6256 218.914 97.5514 218.852 97.4031 218.852C96.4389 218.727 95.6972 218.508 95.178 218.197C94.4363 218.009 93.9543 217.916 93.7317 217.916C93.5092 217.853 93.3238 217.822 93.1755 217.822C92.8046 217.697 92.2855 217.697 91.618 217.822C91.0988 217.885 90.7279 217.885 90.5054 217.822C90.3571 217.76 90.2088 217.729 90.0604 217.729C89.6154 217.791 89.2446 217.822 88.9479 217.822C88.7254 217.76 88.5029 217.729 88.2804 217.729C87.6129 217.729 87.205 217.76 87.0566 217.822C86.9083 217.822 86.7599 217.822 86.6116 217.822C85.8699 217.697 85.3508 217.635 85.0541 217.635C84.0157 217.573 83.0886 217.697 82.2728 218.009C81.8278 217.885 81.3828 217.885 80.9378 218.009C80.5669 218.134 80.1961 218.228 79.8252 218.29C79.5286 218.29 79.2319 218.259 78.9352 218.197C78.7127 218.134 78.416 218.165 78.0452 218.29C77.8969 218.415 77.8227 218.633 77.8227 218.945C77.8227 219.257 77.8969 219.507 78.0452 219.694C77.8969 220.006 77.8227 220.318 77.8227 220.629C77.8969 220.879 77.9339 221.16 77.9339 221.472C77.7856 222.283 77.6744 222.782 77.6002 222.969C77.6002 223.218 77.6002 223.468 77.6002 223.717C77.6744 223.905 77.6744 224.123 77.6002 224.372C77.6002 225.183 77.6373 225.714 77.7114 225.963C77.7856 226.213 77.8227 226.493 77.8227 226.805C77.4519 227.679 77.3035 228.271 77.3777 228.583C77.6002 229.145 77.7485 229.488 77.8227 229.613C77.8969 229.675 77.9339 229.769 77.9339 229.893C77.7856 230.829 77.7114 231.515 77.7114 231.952C77.7856 232.326 77.8227 232.732 77.8227 233.168C77.8227 233.418 77.7856 233.667 77.7114 233.917C77.7114 234.104 77.7114 234.354 77.7114 234.666C78.0081 235.477 78.1194 236.007 78.0452 236.256C78.0452 236.506 78.0452 236.755 78.0452 237.005C78.1194 237.379 78.1935 237.754 78.2677 238.128C78.416 238.502 78.4902 238.876 78.4902 239.251C78.5644 239.75 78.5273 240.249 78.379 240.748C78.3048 241.185 78.3419 241.653 78.4902 242.152C78.4902 242.339 78.5273 242.557 78.6015 242.807C78.7498 242.994 78.824 243.15 78.824 243.274C78.824 243.711 78.7127 244.085 78.4902 244.397C78.3419 244.709 78.1564 245.021 77.9339 245.333C77.5631 245.333 77.2293 245.364 76.9327 245.427C76.636 245.489 76.3764 245.458 76.1539 245.333C75.6347 245.458 75.1156 245.489 74.5964 245.427C74.0772 245.427 73.558 245.489 73.0389 245.614C72.7422 245.489 72.3343 245.427 71.8151 245.427C71.4442 245.364 70.9992 245.333 70.4801 245.333C70.035 245.396 69.5159 245.427 68.9225 245.427C68.7 245.364 68.3663 245.364 67.9213 245.427C67.5504 245.489 67.3279 245.52 67.2537 245.52C66.5862 245.333 66.03 245.208 65.585 245.146C65.2141 245.146 64.8433 245.146 64.4724 245.146C64.1758 245.084 63.8049 245.052 63.3599 245.052C62.9149 245.115 62.5441 245.146 62.2474 245.146C61.2832 245.084 60.6528 244.959 60.3561 244.772C60.1336 244.647 59.8369 244.616 59.4661 244.678L58.4648 244.023C57.7973 243.524 57.4636 243.243 57.4636 243.181C57.0927 242.432 56.9444 241.902 57.0185 241.59C57.0927 241.278 57.204 240.966 57.3523 240.654C57.4265 240.405 57.4636 240.187 57.4636 239.999C57.4636 239.812 57.5006 239.563 57.5748 239.251C57.649 239.126 57.649 238.939 57.5748 238.689C57.5748 238.44 57.5748 238.19 57.5748 237.941C57.5748 237.691 57.5748 237.473 57.5748 237.286C57.649 237.099 57.7231 236.88 57.7973 236.631C57.8715 236.194 57.9086 235.695 57.9086 235.134C57.9086 234.572 57.9827 234.104 58.1311 233.73C58.2794 233.168 58.3165 232.763 58.2423 232.513C58.2423 232.264 58.2423 232.077 58.2423 231.952C58.1681 231.515 58.1311 231.266 58.1311 231.203C58.2052 231.141 58.2423 231.047 58.2423 230.923C58.1681 230.174 58.1681 229.644 58.2423 229.332C58.3165 228.958 58.3536 228.521 58.3536 228.022C58.2794 227.273 58.2423 226.837 58.2423 226.712C58.3165 226.525 58.3536 226.369 58.3536 226.244C58.3536 225.932 58.3165 225.651 58.2423 225.402C58.2423 225.09 58.2052 224.778 58.1311 224.466C58.1311 224.216 58.094 223.998 58.0198 223.811C58.0198 223.624 57.9827 223.405 57.9086 223.156C57.9086 222.719 57.9456 222.439 58.0198 222.314C58.094 222.127 58.1311 221.971 58.1311 221.846C58.2052 221.596 58.2052 221.316 58.1311 221.004C58.1311 220.629 58.1681 220.349 58.2423 220.162C58.2423 219.725 58.2423 219.382 58.2423 219.132C58.2423 218.883 58.2052 218.602 58.1311 218.29C57.9827 217.666 57.9086 217.198 57.9086 216.886C57.9827 216.45 58.0198 216.044 58.0198 215.67C58.094 215.296 58.094 214.89 58.0198 214.454C58.0198 214.266 58.0198 214.079 58.0198 213.892C58.0198 213.643 57.9827 213.393 57.9086 213.143C57.9086 212.956 57.8715 212.769 57.7973 212.582C57.7973 212.395 57.7973 212.177 57.7973 211.927C57.7973 211.74 57.7973 211.553 57.7973 211.366C57.7973 211.116 57.8344 210.898 57.9086 210.711V209.4C57.9827 209.213 58.0569 209.057 58.1311 208.933C58.2052 208.745 58.2423 208.558 58.2423 208.371C58.094 207.623 58.094 207.124 58.2423 206.874C58.3907 206.313 58.3536 205.813 58.1311 205.377C58.2794 205.252 58.3165 205.127 58.2423 205.002C58.2423 204.815 58.2794 204.597 58.3536 204.347C58.3536 204.036 58.3907 203.724 58.4648 203.412C58.6132 203.1 58.6502 202.788 58.5761 202.476C58.2052 201.603 58.0198 200.885 58.0198 200.324C58.094 199.762 58.1311 199.232 58.1311 198.733C58.1311 197.984 58.1311 197.579 58.1311 197.517C58.2052 197.454 58.2423 197.361 58.2423 197.236C58.094 196.487 58.0569 196.019 58.1311 195.832C58.2052 195.645 58.2794 195.458 58.3536 195.271C58.5019 194.522 58.539 194.085 58.4648 193.961C58.3907 193.774 58.4277 193.586 58.5761 193.399V191.621C58.4277 191.309 58.3907 190.998 58.4648 190.686C58.6132 190.311 58.6873 189.968 58.6873 189.656C58.6132 189.22 58.6132 188.908 58.6873 188.721C58.7615 188.533 58.6502 188.409 58.3536 188.346C58.5019 187.722 58.5761 187.348 58.5761 187.223C58.6502 187.099 58.6502 186.943 58.5761 186.755L58.3536 185.352C58.2052 185.227 58.1311 185.04 58.1311 184.79C58.2052 184.478 58.2423 184.198 58.2423 183.948C58.0198 183.2 57.9086 182.732 57.9086 182.545C57.9827 182.357 58.0198 182.17 58.0198 181.983C57.8715 181.297 57.7973 180.923 57.7973 180.86C57.8715 180.798 57.9086 180.735 57.9086 180.673C57.7602 180.049 57.649 179.581 57.5748 179.269C57.5748 178.958 57.5006 178.614 57.3523 178.24C57.5748 177.554 57.7231 177.148 57.7973 177.024C57.9456 176.899 57.9827 176.774 57.9086 176.649C58.7244 176.337 59.1323 176.15 59.1323 176.088C59.2065 176.026 59.3178 175.963 59.4661 175.901C60.3561 175.651 61.0236 175.527 61.4686 175.527C61.9136 175.651 62.1732 175.714 62.2474 175.714C62.3957 175.651 62.5441 175.62 62.6924 175.62C63.3599 175.62 63.842 175.651 64.1387 175.714C64.4354 175.714 64.7691 175.745 65.1399 175.807C65.585 175.807 65.9929 175.776 66.3637 175.714C66.7346 175.589 67.1054 175.651 67.4762 175.901C67.6246 175.776 67.81 175.776 68.0325 175.901C68.3292 175.963 68.5517 175.963 68.7 175.901L70.3688 175.714C71.6297 175.527 72.5197 175.527 73.0389 175.714C73.6322 175.901 74.3368 175.963 75.1526 175.901C75.5235 175.838 75.8572 175.807 76.1539 175.807C76.4506 175.745 76.7102 175.651 76.9327 175.527C77.6002 175.464 78.0081 175.464 78.1564 175.527C78.379 175.527 78.6015 175.527 78.824 175.527C79.269 175.589 79.714 175.62 80.159 175.62C80.604 175.558 81.049 175.527 81.494 175.527C81.7907 175.527 82.0874 175.558 82.384 175.62C82.6807 175.62 82.9774 175.62 83.274 175.62C83.4966 175.62 83.7191 175.62 83.9416 175.62C84.2382 175.558 84.4978 175.527 84.7203 175.527C85.0912 175.714 85.4249 175.776 85.7216 175.714C86.0924 175.651 86.352 175.62 86.5004 175.62C87.0195 175.62 87.4645 175.651 87.8354 175.714C88.2804 175.714 88.7625 175.714 89.2817 175.714C89.5783 175.714 90.0233 175.651 90.6167 175.527C91.5067 175.651 92.1001 175.714 92.3967 175.714C92.6934 175.714 92.9901 175.745 93.2867 175.807C93.8801 175.932 94.288 175.963 94.5105 175.901C95.4747 175.651 96.1051 175.558 96.4018 175.62C96.6985 175.62 96.9581 175.589 97.1806 175.527C97.8481 175.339 98.2931 175.277 98.5156 175.339C98.7381 175.339 98.9235 175.277 99.0719 175.152L100.629 174.965C101.074 174.84 101.371 174.809 101.519 174.871C101.742 174.871 101.927 174.84 102.076 174.778C102.743 175.027 103.077 175.215 103.077 175.339C103.077 175.402 103.114 175.495 103.188 175.62C103.337 175.807 103.448 175.994 103.522 176.182C103.596 176.306 103.707 176.493 103.856 176.743C104.004 177.367 104.152 177.741 104.301 177.866C104.597 178.49 104.746 178.926 104.746 179.176C104.746 179.425 104.82 179.675 104.968 179.925C105.042 180.112 105.117 180.299 105.191 180.486C105.339 180.611 105.45 180.735 105.524 180.86C105.524 181.297 105.562 181.64 105.636 181.89C105.932 182.638 106.044 183.106 105.969 183.293C105.895 183.48 105.932 183.636 106.081 183.761C106.081 184.011 106.118 184.229 106.192 184.416C106.266 184.603 106.34 184.822 106.414 185.071C106.489 185.383 106.489 185.695 106.414 186.007C106.414 186.256 106.452 186.537 106.526 186.849C106.526 187.036 106.563 187.223 106.637 187.41C106.711 187.598 106.785 187.785 106.86 187.972C106.934 188.159 106.934 188.377 106.86 188.627C106.86 188.814 106.897 189.001 106.971 189.188C106.971 189.625 106.971 190.062 106.971 190.498C106.971 190.873 106.785 191.216 106.414 191.528C105.969 191.59 105.599 191.653 105.302 191.715C105.005 191.715 104.672 191.746 104.301 191.808C103.411 191.871 102.817 191.902 102.521 191.902C102.298 191.902 102.001 191.871 101.631 191.808C100.963 191.684 100.555 191.59 100.407 191.528C100.333 191.465 100.259 191.434 100.184 191.434L98.5156 191.153C98.2189 191.029 97.8852 190.935 97.5143 190.873C97.1435 190.81 96.8097 190.717 96.5131 190.592C96.1422 190.717 95.7714 190.717 95.4005 190.592C95.0297 190.467 94.6588 190.374 94.288 190.311C93.2497 190.187 92.2484 190.187 91.2842 190.311H88.5029C87.9837 190.249 87.5016 190.218 87.0566 190.218C86.6858 190.155 86.2037 190.155 85.6103 190.218C85.3878 190.218 85.1282 190.249 84.8316 190.311C84.6091 190.311 84.3866 190.187 84.1641 189.937C83.8674 189.999 83.4595 190.031 82.9403 190.031C82.4211 190.031 82.0874 190.062 81.939 190.124C81.8649 190.124 81.7907 190.124 81.7165 190.124C80.9748 189.999 80.604 189.968 80.604 190.031C80.604 190.031 80.5298 190.031 80.3815 190.031C79.3431 190.093 78.6756 190.187 78.379 190.311C78.1564 190.374 77.8969 190.405 77.6002 190.405L76.7102 191.996C76.636 192.682 76.5989 193.087 76.5989 193.212C76.6731 193.337 76.7102 193.462 76.7102 193.586C76.8585 193.898 76.8956 194.241 76.8214 194.616C76.8214 194.99 76.8585 195.302 76.9327 195.551C77.0068 196.113 77.0439 196.518 77.0439 196.768C77.0439 197.017 77.0439 197.267 77.0439 197.517C77.0439 198.016 77.0439 198.328 77.0439 198.452C77.1181 198.577 77.1181 198.764 77.0439 199.014C77.0439 199.138 77.0439 199.357 77.0439 199.669C77.1181 199.918 77.1552 200.168 77.1552 200.417C77.081 200.792 77.0439 201.041 77.0439 201.166C77.1181 201.291 77.1552 201.415 77.1552 201.54C77.1552 201.727 77.1181 201.946 77.0439 202.195C77.0439 202.445 77.081 202.632 77.1552 202.757C77.8969 203.193 78.3048 203.505 78.379 203.692C78.5273 203.88 78.7498 203.973 79.0465 203.973C79.5656 203.973 80.0848 203.973 80.604 203.973C81.1232 203.973 81.494 204.004 81.7165 204.067C82.5324 204.004 83.0515 204.004 83.274 204.067C83.5707 204.067 83.8674 204.067 84.1641 204.067C84.9057 204.067 85.3508 204.098 85.4991 204.16C85.7216 204.16 85.907 204.16 86.0554 204.16C86.7229 204.036 87.0937 204.004 87.1679 204.067C87.242 204.129 87.3533 204.192 87.5016 204.254C88.2433 204.192 88.6141 204.16 88.6141 204.16C88.6141 204.098 88.6883 204.067 88.8367 204.067C89.5783 204.129 90.1346 204.16 90.5054 204.16C90.8763 204.098 91.3213 204.036 91.8405 203.973C92.3596 203.973 92.7305 204.004 92.953 204.067C93.1755 204.129 93.398 204.16 93.6205 204.16C93.843 204.16 94.0284 204.16 94.1768 204.16C94.3993 204.098 94.6218 204.067 94.8443 204.067C95.2151 204.067 95.623 204.067 96.068 204.067C96.5131 204.067 96.921 204.036 97.2918 203.973C98.4043 204.098 99.1831 204.192 99.6281 204.254C100.073 204.254 100.444 204.192 100.741 204.067C100.889 204.004 101.149 204.004 101.519 204.067C101.964 204.067 102.298 204.098 102.521 204.16C102.743 204.223 102.929 204.316 103.077 204.441C103.299 204.503 103.522 204.472 103.744 204.347C104.264 204.847 104.597 205.221 104.746 205.47C104.894 205.595 105.005 205.751 105.079 205.938C105.228 206.063 105.339 206.219 105.413 206.406C105.413 206.656 105.376 206.874 105.302 207.061C105.228 207.186 105.191 207.342 105.191 207.529C105.339 208.34 105.376 208.839 105.302 209.026C105.228 209.213 105.154 209.4 105.079 209.588C105.079 209.9 105.079 210.211 105.079 210.523C105.079 210.773 105.042 211.022 104.968 211.272C104.894 211.522 104.857 211.771 104.857 212.021C104.931 212.27 104.931 212.551 104.857 212.863C104.634 213.674 104.523 214.173 104.523 214.36C104.597 214.547 104.634 214.797 104.634 215.109C104.56 215.67 104.523 216.013 104.523 216.138C104.597 216.2 104.634 216.294 104.634 216.419C104.115 217.042 103.856 217.448 103.856 217.635C103.856 217.822 103.782 217.978 103.633 218.103C103.337 218.602 103.151 218.976 103.077 219.226C103.003 219.475 102.892 219.663 102.743 219.787Z" fill="white"/>
<path d="M114.202 214.36C114.499 213.674 114.647 213.112 114.647 212.676C114.647 212.239 114.758 211.896 114.981 211.646V210.43C115.352 209.681 115.537 209.213 115.537 209.026C115.686 208.34 115.76 207.966 115.76 207.903C115.76 207.779 115.797 207.654 115.871 207.529C115.945 207.279 116.093 206.874 116.316 206.313C116.613 205.564 116.835 205.034 116.983 204.722C117.132 204.41 117.28 204.129 117.428 203.88C117.799 203.381 117.985 203.069 117.985 202.944C117.985 202.819 118.059 202.694 118.207 202.57C118.356 202.382 118.541 202.195 118.763 202.008C118.986 201.759 119.097 201.478 119.097 201.166C119.691 200.542 120.21 200.168 120.655 200.043C120.951 199.419 121.211 199.076 121.434 199.014C121.656 198.889 121.73 198.671 121.656 198.359C121.953 198.234 122.175 198.109 122.324 197.984C122.472 197.797 122.731 197.641 123.102 197.517C123.399 196.955 123.547 196.643 123.547 196.581C123.621 196.518 123.733 196.456 123.881 196.394C124.104 196.269 124.326 196.113 124.549 195.926C124.771 195.739 124.994 195.551 125.216 195.364C125.809 195.052 126.217 194.896 126.44 194.896C127.182 194.46 127.738 194.179 128.109 194.054C128.48 193.93 128.739 193.711 128.887 193.399C129.184 193.399 129.407 193.368 129.555 193.306C129.777 193.243 130 193.181 130.222 193.119C130.964 192.807 131.372 192.619 131.446 192.557C131.595 192.495 131.706 192.464 131.78 192.464C131.928 192.339 132.114 192.214 132.336 192.089C132.559 191.964 132.744 191.84 132.893 191.715C133.338 191.715 133.745 191.621 134.116 191.434L135.451 191.247C136.193 190.998 136.601 190.904 136.675 190.966C136.823 191.029 137.009 191.029 137.231 190.966C137.751 190.904 138.084 190.842 138.233 190.779C138.381 190.654 138.529 190.561 138.678 190.498C139.271 190.436 139.938 190.342 140.68 190.218C140.977 190.155 141.199 190.093 141.348 190.031C141.57 189.968 141.83 189.906 142.126 189.843C142.72 189.906 143.202 189.906 143.573 189.843C143.944 189.781 144.314 189.75 144.685 189.75C144.982 189.75 145.279 189.781 145.575 189.843C145.872 189.906 146.169 189.968 146.465 190.031C146.984 190.031 147.429 190.031 147.8 190.031C148.245 190.031 148.727 190.062 149.247 190.124C149.543 190.311 149.84 190.467 150.137 190.592C150.507 190.654 150.878 190.748 151.249 190.873C152.139 191.185 152.77 191.465 153.14 191.715C154.03 191.902 154.698 192.12 155.143 192.37C155.885 192.744 156.33 192.963 156.478 193.025C156.626 193.087 156.775 193.119 156.923 193.119C157.887 193.555 158.592 193.898 159.037 194.148C159.482 194.46 159.816 194.709 160.038 194.896C160.186 195.021 160.335 195.115 160.483 195.177C160.706 195.24 160.928 195.333 161.151 195.458L162.152 196.674C162.523 196.986 162.745 197.205 162.819 197.329C162.893 197.392 163.005 197.392 163.153 197.329C163.524 197.828 163.709 198.14 163.709 198.265C163.784 198.328 163.895 198.39 164.043 198.452C164.636 199.138 164.933 199.513 164.933 199.575C165.378 200.199 165.638 200.604 165.712 200.792C165.86 200.916 166.009 201.104 166.157 201.353C166.379 201.977 166.528 202.382 166.602 202.57C166.75 202.757 166.861 202.944 166.936 203.131C167.158 203.443 167.269 203.692 167.269 203.88C167.344 204.067 167.492 204.192 167.714 204.254C167.64 204.566 167.677 204.878 167.826 205.19C167.974 205.502 168.122 205.782 168.271 206.032C168.271 206.281 168.345 206.656 168.493 207.155C168.642 207.903 168.716 208.371 168.716 208.558C168.79 208.745 168.827 208.901 168.827 209.026C169.049 209.4 169.124 209.681 169.049 209.868C169.049 209.993 169.087 210.149 169.161 210.336C169.161 210.586 169.198 210.804 169.272 210.991C169.346 211.178 169.42 211.366 169.494 211.553C169.643 212.613 169.643 213.799 169.494 215.109C169.42 215.545 169.346 215.888 169.272 216.138C169.272 216.387 169.198 216.699 169.049 217.074C168.308 217.323 167.789 217.51 167.492 217.635C166.973 217.947 166.528 218.103 166.157 218.103C165.786 218.103 165.489 218.259 165.267 218.571C164.674 218.446 164.34 218.446 164.266 218.571C164.266 218.696 164.191 218.758 164.043 218.758C163.227 219.007 162.745 219.132 162.597 219.132C162.448 219.132 162.337 219.195 162.263 219.319C161.966 219.257 161.67 219.288 161.373 219.413C161.151 219.538 160.891 219.631 160.594 219.694C159.63 219.631 158.777 219.725 158.035 219.974C157.442 220.099 156.849 220.255 156.255 220.442C155.736 220.567 155.18 220.692 154.587 220.817C153.993 221.066 153.474 221.191 153.029 221.191C152.287 221.565 151.768 221.784 151.472 221.846C151.175 221.846 150.915 221.908 150.693 222.033C150.248 222.22 149.729 222.407 149.135 222.595C148.542 222.719 147.949 222.75 147.355 222.688C147.207 222.813 147.022 222.875 146.799 222.875C146.651 222.813 146.428 222.813 146.132 222.875C145.39 223.125 145.019 223.281 145.019 223.343C145.019 223.343 144.982 223.343 144.908 223.343C144.537 223.468 144.166 223.561 143.795 223.624C143.424 223.624 143.054 223.686 142.683 223.811C142.46 223.936 142.126 224.029 141.681 224.092C141.311 224.154 140.977 224.279 140.68 224.466C140.458 224.404 140.235 224.435 140.013 224.56C139.79 224.622 139.531 224.684 139.234 224.747C138.863 224.56 138.603 224.497 138.455 224.56C138.307 224.56 138.158 224.528 138.01 224.466C137.713 224.216 137.454 224.092 137.231 224.092C137.009 224.029 136.823 223.967 136.675 223.905C136.156 223.468 135.859 223.156 135.785 222.969C135.637 222.844 135.451 222.688 135.229 222.501C135.08 222.314 134.932 222.158 134.784 222.033C134.635 221.721 134.413 221.472 134.116 221.284C133.894 221.097 133.708 220.848 133.56 220.536C132.967 220.099 132.67 219.756 132.67 219.507C132.151 218.883 131.854 218.54 131.78 218.477C131.78 218.415 131.78 218.321 131.78 218.197C131.483 217.885 131.187 217.573 130.89 217.261C130.593 216.949 130.371 216.543 130.222 216.044C129.852 216.793 129.666 217.292 129.666 217.541C129.74 217.791 129.777 218.041 129.777 218.29C129.852 218.852 130 219.288 130.222 219.6C130.074 219.725 130.037 219.912 130.111 220.162C130.185 220.349 130.222 220.567 130.222 220.817C130.297 221.191 130.334 221.472 130.334 221.659C130.334 221.784 130.371 221.908 130.445 222.033L130.667 223.156C131.112 223.967 131.335 224.466 131.335 224.653C131.409 224.778 131.483 224.903 131.557 225.027C132.077 225.527 132.41 225.932 132.559 226.244L133.115 227.273C133.708 227.959 134.042 228.365 134.116 228.49C134.635 228.989 135.043 229.363 135.34 229.613C136.304 230.236 136.823 230.673 136.898 230.923C137.639 231.172 138.121 231.422 138.344 231.671C138.789 231.796 139.048 231.89 139.123 231.952C139.271 232.014 139.419 232.077 139.568 232.139C139.716 232.264 139.901 232.357 140.124 232.42C140.346 232.482 140.532 232.576 140.68 232.701C141.051 232.763 141.459 232.794 141.904 232.794C142.794 232.981 143.461 233.075 143.906 233.075C144.426 233.012 144.871 233.044 145.241 233.168C145.835 233.168 146.428 233.106 147.022 232.981C147.392 232.857 147.652 232.794 147.8 232.794C147.949 232.794 148.097 232.732 148.245 232.607C148.69 232.545 148.95 232.513 149.024 232.513C149.172 232.451 149.321 232.389 149.469 232.326C150.137 232.014 150.507 231.858 150.582 231.858C150.656 231.796 150.767 231.702 150.915 231.578C151.731 231.328 152.139 231.203 152.139 231.203C152.658 230.891 152.955 230.673 153.029 230.548C153.103 230.361 153.215 230.205 153.363 230.08C153.882 229.769 154.179 229.613 154.253 229.613C154.401 229.55 154.475 229.457 154.475 229.332C155.069 229.145 155.365 229.051 155.365 229.051C155.44 228.989 155.551 228.989 155.699 229.051C156.218 228.926 156.515 228.895 156.589 228.958C156.738 228.958 156.849 228.989 156.923 229.051C157.145 229.176 157.368 229.332 157.59 229.519C157.813 229.644 158.073 229.769 158.369 229.893C158.814 230.33 159.074 230.611 159.148 230.735C159.222 230.798 159.333 230.86 159.482 230.923C159.853 231.546 160.038 231.858 160.038 231.858C160.409 232.295 160.631 232.545 160.706 232.607C160.854 232.607 160.965 232.669 161.039 232.794C161.336 233.418 161.521 233.761 161.596 233.823C161.67 233.823 161.781 233.886 161.929 234.011C162.152 234.385 162.337 234.634 162.486 234.759C162.708 234.884 162.893 235.04 163.042 235.227C163.264 235.352 163.413 235.508 163.487 235.695C163.635 235.82 163.821 235.944 164.043 236.069C164.34 236.88 164.525 237.379 164.599 237.566C164.748 237.691 164.859 237.91 164.933 238.221C164.933 238.346 164.896 238.502 164.822 238.689C164.748 238.876 164.711 239.064 164.711 239.251C164.191 239.937 163.858 240.405 163.709 240.654C163.561 240.842 163.339 240.998 163.042 241.122C162.745 241.309 162.374 241.465 161.929 241.59C161.558 241.715 161.299 241.964 161.151 242.339C160.854 242.401 160.594 242.432 160.372 242.432C160.149 242.432 160.038 242.588 160.038 242.9C159.296 243.15 158.888 243.274 158.814 243.274C158.221 243.399 157.776 243.586 157.479 243.836C156.589 244.085 155.996 244.273 155.699 244.397C155.477 244.522 155.217 244.647 154.92 244.772C154.253 244.772 153.697 244.834 153.252 244.959C152.436 245.146 151.88 245.271 151.583 245.333C151.286 245.396 150.99 245.458 150.693 245.52C149.58 245.707 148.839 245.801 148.468 245.801C148.097 245.801 147.652 245.863 147.133 245.988C146.91 246.051 146.614 246.113 146.243 246.175C145.872 246.238 145.612 246.3 145.464 246.362C145.093 246.362 144.722 246.331 144.351 246.269C144.055 246.269 143.758 246.206 143.461 246.082C142.423 246.082 141.941 246.144 142.015 246.269C141.793 246.144 141.533 246.082 141.236 246.082C141.014 246.082 140.791 246.051 140.569 245.988C139.753 245.863 139.197 245.739 138.9 245.614H137.676C137.306 245.551 136.972 245.458 136.675 245.333C136.378 245.271 136.045 245.177 135.674 245.052C134.932 244.865 134.524 244.772 134.45 244.772C134.376 244.772 134.265 244.74 134.116 244.678C133.375 244.366 132.855 244.148 132.559 244.023C131.595 243.774 131.038 243.618 130.89 243.555C130.519 243.306 130.26 243.181 130.111 243.181C129.963 243.181 129.815 243.15 129.666 243.087C129.295 242.775 129.036 242.588 128.887 242.526C128.739 242.464 128.591 242.37 128.442 242.245C127.997 241.871 127.701 241.684 127.552 241.684C127.404 241.621 127.256 241.59 127.107 241.59C126.514 241.029 126.143 240.686 125.995 240.561C125.847 240.436 125.698 240.311 125.55 240.187C125.179 239.812 124.919 239.532 124.771 239.344C124.623 239.157 124.437 238.97 124.215 238.783C123.621 238.159 123.251 237.785 123.102 237.66C122.954 237.473 122.769 237.317 122.546 237.192C122.472 237.005 122.324 236.849 122.101 236.724C121.953 236.6 121.804 236.475 121.656 236.35C121.359 235.851 121.174 235.539 121.1 235.414C121.1 235.289 120.989 235.258 120.766 235.321C120.544 234.759 120.21 234.291 119.765 233.917C119.542 233.48 119.394 233.231 119.32 233.168C119.32 233.106 119.32 233.012 119.32 232.888C118.875 232.326 118.615 232.014 118.541 231.952C117.873 231.203 117.466 230.673 117.317 230.361C117.095 229.987 116.946 229.769 116.872 229.706C116.798 229.644 116.687 229.581 116.538 229.519C116.242 228.521 115.945 227.928 115.648 227.741C115.426 227.492 115.352 227.148 115.426 226.712C115.278 226.026 115.092 225.589 114.87 225.402C114.721 225.215 114.61 225.027 114.536 224.84V223.624C114.462 223.374 114.425 222.969 114.425 222.407C114.35 222.158 114.276 221.908 114.202 221.659C114.128 221.409 114.054 221.129 113.98 220.817C113.98 220.068 114.017 219.663 114.091 219.6C113.868 219.226 113.794 218.758 113.868 218.197C114.017 217.573 114.091 217.011 114.091 216.512C114.165 216.138 114.202 215.826 114.202 215.576C114.202 215.265 114.276 215.015 114.425 214.828L114.202 214.36ZM150.025 207.623C149.877 207.498 149.766 207.342 149.692 207.155C149.692 206.968 149.617 206.749 149.469 206.5C149.098 206.313 148.802 206.094 148.579 205.845C148.431 205.533 148.134 205.314 147.689 205.19C147.541 204.94 147.244 204.784 146.799 204.722C146.428 204.659 146.132 204.503 145.909 204.254C145.538 204.192 145.204 204.16 144.908 204.16C144.611 204.16 144.277 204.129 143.906 204.067C143.091 204.004 142.609 204.004 142.46 204.067C141.867 204.067 141.459 204.098 141.236 204.16C141.014 204.223 140.791 204.285 140.569 204.347C140.421 204.41 140.198 204.441 139.901 204.441C139.679 204.379 139.493 204.379 139.345 204.441C138.455 204.94 137.788 205.252 137.343 205.377C136.675 206.063 136.267 206.468 136.119 206.593C135.674 207.03 135.414 207.279 135.34 207.342C135.266 207.404 135.192 207.498 135.118 207.623C134.524 208.184 134.153 208.59 134.005 208.839C133.338 209.525 132.93 209.9 132.781 209.962C132.633 210.149 132.485 210.367 132.336 210.617C132.188 210.804 132.002 210.96 131.78 211.085C131.483 211.771 131.261 212.208 131.112 212.395C131.038 212.52 131.001 212.707 131.001 212.956C131.446 212.832 131.891 212.738 132.336 212.676C132.855 212.551 133.3 212.426 133.671 212.301C134.19 212.301 134.524 212.27 134.673 212.208C134.895 212.145 135.118 212.052 135.34 211.927C135.711 211.802 136.045 211.74 136.341 211.74C136.638 211.677 137.046 211.615 137.565 211.553C138.307 211.303 138.789 211.147 139.011 211.085C139.308 211.022 139.568 210.96 139.79 210.898C140.161 210.773 140.532 210.711 140.903 210.711C141.348 210.711 141.681 210.648 141.904 210.523C142.942 210.274 143.647 210.118 144.018 210.056C144.611 210.056 145.056 210.024 145.353 209.962C146.169 209.712 146.688 209.588 146.91 209.588C147.578 209.525 148.134 209.432 148.579 209.307C149.098 209.12 149.543 208.901 149.914 208.652C150.285 208.34 150.396 208.122 150.248 207.997C150.174 207.872 150.099 207.747 150.025 207.623Z" fill="white"/>
<path d="M196.084 189.188C196.455 189.999 196.64 190.405 196.64 190.405C197.085 191.029 197.345 191.372 197.419 191.434C197.493 191.497 197.604 191.528 197.752 191.528C197.827 191.84 197.975 192.058 198.198 192.183C198.494 192.245 198.68 192.432 198.754 192.744C199.199 193.368 199.533 193.867 199.755 194.241C200.052 194.553 200.348 194.865 200.645 195.177C200.719 195.427 200.83 195.645 200.979 195.832C201.127 195.957 201.275 196.113 201.424 196.3C201.572 196.425 201.683 196.612 201.758 196.862C201.832 197.049 201.98 197.205 202.203 197.329C202.573 197.891 202.87 198.328 203.093 198.639C203.389 198.951 203.501 199.326 203.426 199.762C202.759 200.324 202.351 200.604 202.203 200.604C202.054 200.604 201.98 200.667 201.98 200.792C201.164 201.041 200.682 201.228 200.534 201.353C200.385 201.415 200.237 201.509 200.089 201.634C199.347 202.008 198.939 202.226 198.865 202.289C198.791 202.289 198.717 202.289 198.643 202.289C198.494 202.414 198.272 202.538 197.975 202.663C197.752 202.788 197.567 202.944 197.419 203.131C197.196 203.131 196.974 203.162 196.751 203.225C196.603 203.287 196.417 203.381 196.195 203.505C195.75 203.817 195.49 204.036 195.416 204.16C195.342 204.223 195.231 204.316 195.082 204.441C194.712 204.815 194.452 205.096 194.304 205.283C194.23 205.47 194.081 205.626 193.859 205.751C193.562 206.188 193.414 206.437 193.414 206.5C193.488 206.562 193.488 206.656 193.414 206.78C193.191 207.529 193.006 207.997 192.857 208.184C192.783 208.309 192.82 208.496 192.969 208.745C193.191 209.182 193.339 209.432 193.414 209.494C193.562 209.494 193.636 209.556 193.636 209.681C193.785 210.18 193.859 210.555 193.859 210.804C194.378 211.303 194.749 211.646 194.971 211.833C195.268 211.958 195.49 212.114 195.639 212.301C196.01 212.613 196.232 212.8 196.306 212.863C196.38 212.863 196.455 212.925 196.529 213.05C196.9 213.424 197.122 213.705 197.196 213.892C197.27 214.017 197.382 214.142 197.53 214.266C197.752 214.89 197.938 215.233 198.086 215.296C198.309 215.358 198.457 215.483 198.531 215.67C198.902 216.169 199.162 216.512 199.31 216.699C199.458 216.886 199.681 217.011 199.978 217.074C200.052 217.386 200.2 217.635 200.423 217.822C200.719 218.009 200.979 218.228 201.201 218.477C201.35 218.727 201.498 218.945 201.646 219.132C201.795 219.319 202.017 219.475 202.314 219.6C202.833 220.286 203.13 220.754 203.204 221.004C203.278 221.253 203.463 221.44 203.76 221.565C204.057 222.189 204.279 222.657 204.428 222.969C204.65 223.281 204.873 223.593 205.095 223.905C205.243 224.341 205.355 224.622 205.429 224.747C205.577 224.809 205.651 224.903 205.651 225.027L205.874 226.337C206.022 227.086 206.133 227.554 206.208 227.741C206.208 227.928 206.245 228.147 206.319 228.396C206.393 228.583 206.43 228.77 206.43 228.958C206.43 229.145 206.43 229.332 206.43 229.519C206.504 229.706 206.541 229.862 206.541 229.987C206.541 230.424 206.504 230.798 206.43 231.11C206.43 231.359 206.504 231.64 206.653 231.952C206.504 232.139 206.393 232.357 206.319 232.607C206.245 232.857 206.096 233.044 205.874 233.168C205.874 233.48 205.8 233.73 205.651 233.917C205.577 234.104 205.466 234.291 205.318 234.478C205.021 235.04 204.798 235.352 204.65 235.414C204.502 235.477 204.502 235.57 204.65 235.695C204.205 236.007 203.983 236.194 203.983 236.256C203.983 236.319 203.908 236.412 203.76 236.537C203.315 236.911 203.056 237.13 202.981 237.192C202.907 237.255 202.87 237.348 202.87 237.473C202.277 237.847 201.943 238.097 201.869 238.221C201.646 238.533 201.498 238.752 201.424 238.876C201.35 238.939 201.238 239.032 201.09 239.157C200.793 239.532 200.571 239.781 200.423 239.906C200.348 239.968 200.274 240.093 200.2 240.28C199.903 240.28 199.681 240.374 199.533 240.561C199.384 240.748 199.236 240.904 199.088 241.029C198.643 241.341 198.42 241.559 198.42 241.684C198.42 241.746 198.346 241.777 198.198 241.777C197.752 242.276 197.456 242.619 197.307 242.807C196.417 243.306 195.824 243.742 195.527 244.117C194.712 244.678 194.081 245.146 193.636 245.52C192.82 246.019 192.338 246.3 192.19 246.362C192.042 246.425 191.893 246.518 191.745 246.643C191.448 246.83 191.226 246.955 191.077 247.017C191.003 247.142 190.892 247.267 190.744 247.392C190.447 247.517 190.113 247.579 189.742 247.579C189.446 247.641 189.186 247.766 188.964 247.953C188.667 247.891 188.407 247.891 188.185 247.953C188.036 248.016 187.888 248.016 187.74 247.953C187.517 247.953 187.295 247.86 187.072 247.672C186.924 247.548 186.776 247.423 186.627 247.298C185.96 246.862 185.589 246.643 185.515 246.643C185.366 246.269 185.218 246.019 185.07 245.895C184.996 245.77 184.884 245.645 184.736 245.52C184.217 245.021 183.883 244.678 183.735 244.491C183.586 244.241 183.438 244.054 183.29 243.93C182.771 243.306 182.474 242.963 182.4 242.9C181.955 242.401 181.695 242.12 181.621 242.058C181.621 241.996 181.584 241.933 181.51 241.871C181.287 241.434 181.102 241.185 180.953 241.122C180.805 240.998 180.657 240.873 180.508 240.748C180.138 240.062 179.952 239.687 179.952 239.625C179.952 239.5 179.915 239.376 179.841 239.251C179.693 239.064 179.544 238.876 179.396 238.689C179.248 238.44 179.099 238.253 178.951 238.128C178.951 237.691 178.914 237.442 178.84 237.379C178.84 237.255 178.84 237.161 178.84 237.099L180.286 236.35C180.434 236.225 180.62 236.132 180.842 236.069C181.065 236.007 181.213 235.851 181.287 235.601C181.51 235.601 181.695 235.57 181.843 235.508C182.066 235.383 182.251 235.258 182.4 235.134C182.993 234.884 183.29 234.728 183.29 234.666C183.364 234.541 183.438 234.447 183.512 234.385C184.106 234.198 184.551 234.042 184.847 233.917C185.292 233.418 185.589 233.137 185.737 233.075C185.886 232.95 186.034 232.825 186.182 232.701C186.85 232.201 187.184 231.921 187.184 231.858C187.406 231.359 187.591 231.079 187.74 231.016C187.888 230.954 187.962 230.86 187.962 230.735C188.111 229.862 188.148 229.207 188.074 228.77C187.999 228.334 187.925 227.897 187.851 227.46C187.554 227.211 187.332 226.961 187.184 226.712C187.035 226.4 186.85 226.119 186.627 225.87C186.034 225.246 185.7 224.871 185.626 224.747C185.626 224.622 185.552 224.497 185.404 224.372L183.735 222.875C183.586 222.688 183.438 222.563 183.29 222.501C183.216 222.376 183.104 222.189 182.956 221.939C182.733 221.565 182.4 221.253 181.955 221.004C181.436 220.505 181.176 220.255 181.176 220.255C181.176 220.193 181.139 220.13 181.065 220.068C180.471 219.569 180.138 219.288 180.063 219.226C179.841 218.477 179.693 218.041 179.618 217.916C179.322 217.604 179.136 217.354 179.062 217.167C179.062 216.918 178.988 216.731 178.84 216.606C178.691 216.419 178.506 216.231 178.283 216.044C178.135 215.857 177.987 215.67 177.838 215.483C177.542 214.859 177.356 214.485 177.282 214.36C177.208 214.235 177.171 214.11 177.171 213.986C176.948 213.674 176.763 213.455 176.615 213.331C176.54 213.206 176.466 213.081 176.392 212.956C176.244 212.27 176.133 211.896 176.058 211.833C175.984 211.771 175.91 211.677 175.836 211.553C175.391 210.617 175.02 209.931 174.723 209.494C174.797 208.995 174.723 208.527 174.501 208.09C174.352 207.654 174.352 207.279 174.501 206.968C174.278 206.656 174.167 206.25 174.167 205.751C174.241 205.19 174.39 204.753 174.612 204.441C174.612 203.942 174.612 203.536 174.612 203.225C174.686 202.85 174.872 202.57 175.168 202.382C175.168 202.07 175.354 201.696 175.725 201.26C176.095 200.823 176.392 200.511 176.615 200.324C177.06 199.825 177.282 199.544 177.282 199.482C177.356 199.357 177.468 199.232 177.616 199.107C178.061 198.421 178.358 197.953 178.506 197.704C178.728 197.267 178.914 197.049 179.062 197.049C179.21 197.049 179.359 197.017 179.507 196.955C180.1 196.456 180.508 196.019 180.731 195.645C181.028 195.271 181.436 194.99 181.955 194.803L182.622 193.867C183.883 193.306 184.588 192.9 184.736 192.651C185.255 192.526 185.626 192.401 185.849 192.276C186.071 192.152 186.331 191.996 186.627 191.808C187.221 191.372 187.554 191.153 187.629 191.153C187.703 191.091 187.814 191.029 187.962 190.966C188.111 190.904 188.333 190.842 188.63 190.779C188.926 190.654 189.186 190.53 189.409 190.405L190.521 189.937C191.337 189.75 191.893 189.532 192.19 189.282C192.783 189.157 193.265 189.095 193.636 189.095C194.526 189.032 194.971 189.032 194.971 189.095C195.045 189.157 195.157 189.188 195.305 189.188H196.084Z" fill="white"/>
<path d="M237.136 191.621C237.581 191.684 237.989 191.715 238.36 191.715C238.805 191.715 239.212 191.653 239.583 191.528C240.399 191.715 240.844 191.808 240.918 191.808C241.067 191.746 241.215 191.715 241.363 191.715C242.031 191.715 242.439 191.684 242.587 191.621C242.735 191.559 242.884 191.528 243.032 191.528C243.848 191.777 244.441 191.902 244.812 191.902C245.257 191.84 245.628 191.871 245.925 191.996C246.444 192.619 246.741 192.994 246.815 193.119C246.889 193.181 246.926 193.274 246.926 193.399C246.703 194.148 246.592 194.616 246.592 194.803C246.592 194.99 246.666 195.146 246.815 195.271C246.666 195.707 246.629 196.144 246.703 196.581C246.778 197.017 246.815 197.485 246.815 197.984C246.815 198.109 246.778 198.296 246.703 198.546C246.703 198.733 246.703 198.983 246.703 199.294C246.703 200.043 246.703 200.573 246.703 200.885C246.778 201.197 246.815 201.696 246.815 202.382C246.741 203.381 246.703 204.098 246.703 204.535C246.778 204.909 246.703 205.252 246.481 205.564C245.962 206.125 245.554 206.437 245.257 206.5C244.96 206.562 244.627 206.656 244.256 206.78C243.069 206.593 242.105 206.531 241.363 206.593C240.622 206.593 239.917 206.593 239.25 206.593C238.36 206.593 237.803 206.624 237.581 206.687C237.432 206.749 237.284 206.718 237.136 206.593C236.987 207.03 236.876 207.467 236.802 207.903C236.802 208.34 236.765 208.777 236.691 209.213C236.691 209.712 236.654 210.211 236.579 210.711C236.579 211.147 236.654 211.584 236.802 212.021L236.691 214.173C236.765 214.859 236.765 215.233 236.691 215.296C236.691 215.358 236.691 215.452 236.691 215.576C236.691 216.325 236.728 216.731 236.802 216.793C236.876 216.793 236.913 216.855 236.913 216.98C236.913 217.541 236.913 217.947 236.913 218.197C236.913 218.384 236.95 218.633 237.025 218.945C237.025 219.881 237.099 220.598 237.247 221.097C237.247 221.534 237.21 221.846 237.136 222.033C237.136 222.22 237.21 222.376 237.358 222.501L237.247 224.372L237.47 225.589C237.47 225.776 237.47 225.963 237.47 226.15C237.544 226.337 237.618 226.556 237.692 226.805L238.137 228.115C238.285 228.677 238.434 229.114 238.582 229.425C238.805 229.675 239.064 229.862 239.361 229.987C239.509 230.424 239.732 230.767 240.028 231.016C240.77 231.141 241.141 231.266 241.141 231.391C241.215 231.515 241.326 231.578 241.475 231.578C241.845 231.702 242.105 231.796 242.253 231.858C242.402 231.858 242.55 231.921 242.698 232.046C242.921 231.983 243.143 232.014 243.366 232.139C243.588 232.201 243.848 232.264 244.145 232.326C244.293 232.326 244.478 232.326 244.701 232.326C244.998 232.264 245.257 232.233 245.48 232.233C246.296 232.42 246.926 232.513 247.371 232.513C247.816 232.451 248.224 232.42 248.595 232.42H249.819C250.041 233.418 250.078 234.073 249.93 234.385C249.633 234.697 249.485 234.915 249.485 235.04C249.485 235.165 249.373 235.258 249.151 235.321C248.928 235.944 248.817 236.35 248.817 236.537C248.817 236.724 248.743 236.943 248.595 237.192C248.446 237.754 248.335 238.066 248.261 238.128C248.187 238.128 248.15 238.159 248.15 238.221C248.076 238.845 248.001 239.22 247.927 239.344C247.631 239.781 247.445 239.999 247.371 239.999C247.297 239.999 247.223 240.062 247.148 240.187C247.074 240.561 247 240.81 246.926 240.935C246.852 240.998 246.778 241.091 246.703 241.216C246.481 241.777 246.37 242.089 246.37 242.152C246.37 242.152 246.333 242.183 246.258 242.245C246.11 242.495 245.999 242.744 245.925 242.994C245.925 243.243 245.851 243.493 245.702 243.742C245.554 243.992 245.405 244.21 245.257 244.397C245.109 244.522 244.96 244.709 244.812 244.959C244.441 245.084 244.145 245.208 243.922 245.333C243.774 245.52 243.588 245.676 243.366 245.801C242.773 245.801 242.439 245.832 242.365 245.895C242.365 245.957 242.29 245.988 242.142 245.988C241.845 245.926 241.586 245.926 241.363 245.988C241.215 246.051 241.03 246.082 240.807 246.082C239.991 246.206 239.435 246.206 239.138 246.082C238.026 245.957 237.21 245.801 236.691 245.614C236.246 245.614 235.912 245.583 235.689 245.52C235.541 245.52 235.393 245.52 235.244 245.52C234.799 245.458 234.392 245.364 234.021 245.24C233.65 245.177 233.279 245.146 232.908 245.146C232.76 244.896 232.5 244.74 232.129 244.678C231.759 244.616 231.388 244.522 231.017 244.397C230.201 244.148 229.756 244.054 229.682 244.117C229.608 244.117 229.496 244.085 229.348 244.023C229.126 244.023 228.866 243.961 228.569 243.836C228.347 243.711 228.124 243.586 227.902 243.462C227.605 243.337 227.346 243.212 227.123 243.087C226.975 242.963 226.752 242.838 226.456 242.713C226.307 242.526 226.159 242.37 226.011 242.245C225.936 242.12 225.714 242.058 225.343 242.058C225.046 241.684 224.824 241.465 224.676 241.403C224.527 241.341 224.379 241.247 224.231 241.122C223.786 240.498 223.526 240.062 223.452 239.812C223.378 239.563 223.229 239.376 223.007 239.251C222.858 238.814 222.71 238.502 222.562 238.315C222.488 238.066 222.339 237.878 222.117 237.754C222.117 237.379 222.005 237.036 221.783 236.724C221.56 236.35 221.523 236.007 221.672 235.695C221.598 234.634 221.264 233.855 220.67 233.356C220.67 232.857 220.633 232.576 220.559 232.513C220.485 232.451 220.448 232.357 220.448 232.233C220.448 232.108 220.448 231.952 220.448 231.765C220.522 231.515 220.559 231.297 220.559 231.11C220.633 230.985 220.633 230.829 220.559 230.642C220.485 230.392 220.448 230.205 220.448 230.08C220.448 229.02 220.411 228.459 220.337 228.396C220.337 227.835 220.337 227.46 220.337 227.273C220.411 227.086 220.448 226.899 220.448 226.712V225.589C220.374 225.027 220.3 224.591 220.225 224.279C220.225 223.967 220.188 223.655 220.114 223.343V222.314C220.114 222.127 220.077 221.971 220.003 221.846C219.929 221.659 219.892 221.472 219.892 221.284C220.114 220.661 220.188 220.255 220.114 220.068C220.04 219.818 219.966 219.538 219.892 219.226C219.892 218.602 219.892 218.165 219.892 217.916C219.966 217.604 219.966 217.354 219.892 217.167C219.892 216.294 219.855 215.483 219.78 214.734C219.78 213.986 219.818 213.206 219.892 212.395C219.966 211.771 219.966 211.428 219.892 211.366C219.892 211.241 219.892 211.116 219.892 210.991C219.892 210.492 219.892 209.993 219.892 209.494C219.966 208.995 219.929 208.496 219.78 207.997C219.929 207.81 219.966 207.591 219.892 207.342C219.818 207.03 219.855 206.718 220.003 206.406C219.855 206.344 219.632 206.313 219.335 206.313C219.039 206.25 218.816 206.281 218.668 206.406C218.223 206.281 217.852 206.25 217.555 206.313C217.259 206.375 217.036 206.406 216.888 206.406C216.072 206.468 215.553 206.5 215.33 206.5C215.182 206.5 215.034 206.593 214.885 206.78C214.737 206.656 214.514 206.624 214.218 206.687C213.995 206.687 213.81 206.624 213.662 206.5C212.994 206.188 212.586 206.032 212.438 206.032C212.289 206.032 212.141 206.001 211.993 205.938C211.844 205.314 211.659 204.909 211.437 204.722C211.288 204.472 211.177 204.192 211.103 203.88C211.103 203.755 211.066 203.599 210.992 203.412C210.992 203.162 211.029 202.975 211.103 202.85C211.177 202.476 211.177 202.226 211.103 202.102C211.029 201.977 210.954 201.852 210.88 201.727C210.806 201.041 210.769 200.604 210.769 200.417C210.843 200.23 210.88 200.012 210.88 199.762C210.806 199.45 210.769 199.263 210.769 199.201C210.843 199.076 210.88 198.92 210.88 198.733C210.88 198.234 210.843 197.953 210.769 197.891C210.695 197.766 210.695 197.641 210.769 197.517C210.695 196.893 210.695 196.518 210.769 196.394C210.843 196.144 210.843 195.801 210.769 195.364C210.769 194.865 210.769 194.46 210.769 194.148C210.843 193.524 210.843 193.056 210.769 192.744C210.695 192.432 210.732 192.152 210.88 191.902C211.622 191.216 211.993 190.842 211.993 190.779C212.883 190.904 213.402 190.966 213.55 190.966C213.773 190.966 213.995 191.029 214.218 191.153C214.663 191.341 214.997 191.434 215.219 191.434C215.516 191.372 215.775 191.434 215.998 191.621C216.665 191.497 217.296 191.497 217.889 191.621C218.557 191.746 219.224 191.746 219.892 191.621C219.966 191.309 219.966 190.998 219.892 190.686C219.818 190.374 219.818 190.124 219.892 189.937C219.818 189.5 219.78 188.97 219.78 188.346C219.855 187.722 219.892 187.192 219.892 186.755C219.743 186.069 219.669 185.726 219.669 185.726C219.743 185.664 219.78 185.601 219.78 185.539C219.706 184.79 219.632 184.385 219.558 184.323C219.558 183.886 219.447 183.48 219.224 183.106C219.15 182.981 219.113 182.825 219.113 182.638C219.113 182.389 219.113 182.201 219.113 182.077C218.89 181.765 218.779 181.546 218.779 181.422C218.853 181.235 218.816 181.047 218.668 180.86C218.742 180.611 218.742 180.392 218.668 180.205C218.594 179.956 218.557 179.737 218.557 179.55C218.557 178.926 218.52 178.552 218.445 178.427C218.445 178.303 218.445 178.178 218.445 178.053C218.445 177.741 218.482 177.46 218.557 177.211C218.705 176.961 218.816 176.681 218.89 176.369C218.594 175.807 218.482 175.464 218.557 175.339C218.631 175.215 218.631 175.059 218.557 174.871C218.853 174.622 219.15 174.435 219.447 174.31C219.818 174.123 220.151 173.905 220.448 173.655C220.745 173.717 221.041 173.717 221.338 173.655C221.635 173.593 221.931 173.561 222.228 173.561C223.118 173.561 223.6 173.561 223.674 173.561C223.823 173.499 223.971 173.468 224.119 173.468L225.788 173.561C226.011 173.561 226.233 173.593 226.456 173.655C226.678 173.655 226.863 173.624 227.012 173.561C227.902 173.437 228.421 173.405 228.569 173.468C228.792 173.468 228.977 173.437 229.126 173.374H230.906C231.425 173.437 231.907 173.468 232.352 173.468C232.871 173.468 233.39 173.499 233.909 173.561C234.206 173.561 234.466 173.593 234.688 173.655C234.985 173.717 235.319 173.717 235.689 173.655C236.431 173.967 236.839 174.154 236.913 174.216C237.062 174.279 237.136 174.404 237.136 174.591C237.803 174.965 238.1 175.183 238.026 175.246C238.026 175.308 238.063 175.371 238.137 175.433C238.36 175.558 238.471 175.745 238.471 175.994C238.545 176.244 238.545 176.431 238.471 176.556C238.322 177.304 238.285 177.741 238.36 177.866C238.434 177.991 238.471 178.115 238.471 178.24C238.397 178.926 238.36 179.332 238.36 179.457C238.434 179.581 238.471 179.706 238.471 179.831C238.397 180.08 238.322 180.33 238.248 180.58C238.174 180.829 238.1 181.079 238.026 181.328C238.1 181.952 238.1 182.389 238.026 182.638C237.952 182.825 237.915 182.981 237.915 183.106C237.915 183.667 237.877 183.979 237.803 184.042C237.729 184.104 237.692 184.198 237.692 184.323C237.618 184.822 237.581 185.352 237.581 185.913C237.581 186.412 237.581 186.974 237.581 187.598C237.507 187.91 237.432 188.221 237.358 188.533C237.284 188.845 237.247 189.095 237.247 189.282C237.173 190.031 237.136 190.53 237.136 190.779C237.21 191.029 237.21 191.309 237.136 191.621Z" fill="white"/>
<path d="M272.736 183.48C272.588 183.418 272.366 183.449 272.069 183.574C271.846 183.636 271.661 183.667 271.513 183.667C270.697 183.605 270.178 183.605 269.955 183.667C269.733 183.73 269.547 183.761 269.399 183.761C269.176 183.761 268.954 183.73 268.731 183.667C268.509 183.605 268.249 183.574 267.953 183.574L266.284 183.761H264.393C264.17 183.699 263.948 183.636 263.725 183.574C263.503 183.512 263.28 183.48 263.058 183.48C262.687 183.48 262.39 183.543 262.167 183.667C261.945 183.73 261.685 183.73 261.389 183.667C260.721 183.792 260.202 183.886 259.831 183.948C259.46 184.011 259.09 183.979 258.719 183.855C257.829 183.667 257.347 183.543 257.272 183.48C257.272 183.356 257.198 183.262 257.05 183.2C256.605 182.888 256.382 182.701 256.382 182.638C256.457 182.513 256.457 182.389 256.382 182.264C256.234 181.702 256.16 181.203 256.16 180.767C256.234 180.268 256.234 179.769 256.16 179.269C256.16 178.958 256.123 178.677 256.049 178.427C255.974 178.178 255.9 177.928 255.826 177.679C255.678 176.993 255.567 176.556 255.492 176.369C255.715 175.932 255.826 175.433 255.826 174.871C256.419 174.31 256.753 173.967 256.827 173.842C256.902 173.717 257.087 173.624 257.384 173.561C257.903 173.312 258.199 173.218 258.274 173.281C258.348 173.281 258.533 173.312 258.83 173.374C259.497 173.25 259.942 173.187 260.165 173.187C260.387 173.125 260.61 173.094 260.832 173.094C261.5 173.094 261.871 173.094 261.945 173.094C262.093 173.031 262.242 173 262.39 173C262.983 173 263.317 173.031 263.391 173.094C263.54 173.094 263.688 173.094 263.836 173.094C264.207 173.156 264.541 173.187 264.838 173.187C265.134 173.125 265.431 173.094 265.728 173.094C265.95 173.094 266.173 173.125 266.395 173.187C266.618 173.25 266.803 173.281 266.951 173.281C267.322 173.218 267.582 173.218 267.73 173.281C267.878 173.343 268.027 173.374 268.175 173.374C268.472 173.374 268.731 173.343 268.954 173.281C269.176 173.156 269.436 173.094 269.733 173.094C270.548 173.218 271.068 173.281 271.29 173.281C271.513 173.281 271.809 173.312 272.18 173.374C272.329 173.686 272.625 173.967 273.07 174.216C273.367 174.903 273.478 175.246 273.404 175.246C273.404 175.246 273.404 175.277 273.404 175.339C273.552 176.275 273.589 176.961 273.515 177.398C273.441 177.772 273.478 178.178 273.626 178.614C273.478 178.739 273.404 178.926 273.404 179.176C273.478 179.363 273.515 179.581 273.515 179.831C273.515 180.018 273.478 180.236 273.404 180.486C273.33 180.673 273.293 180.86 273.293 181.047C273.441 182.233 273.256 183.044 272.736 183.48ZM256.939 243.93C256.79 242.994 256.716 242.214 256.716 241.59C256.716 240.966 256.79 240.342 256.939 239.719C256.864 239.532 256.827 239.344 256.827 239.157C256.902 238.97 256.939 238.814 256.939 238.689C257.235 238.128 257.384 237.754 257.384 237.566L257.606 235.882C257.606 235.695 257.606 235.539 257.606 235.414C257.68 235.227 257.717 235.04 257.717 234.853C257.643 234.167 257.606 233.792 257.606 233.73L257.94 231.203C258.014 230.642 258.014 230.08 257.94 229.519C257.94 228.958 257.94 228.396 257.94 227.835C257.94 227.211 257.903 226.899 257.829 226.899C257.754 226.837 257.717 226.774 257.717 226.712C257.643 225.963 257.606 225.339 257.606 224.84C257.458 224.029 257.458 223.343 257.606 222.782C257.903 222.158 257.94 221.721 257.717 221.472C257.495 220.848 257.347 220.068 257.272 219.132C257.198 218.571 257.161 218.197 257.161 218.009C257.161 217.76 257.124 217.51 257.05 217.261C256.902 216.512 256.864 216.044 256.939 215.857C257.013 215.67 257.05 215.514 257.05 215.389C257.05 215.14 257.013 214.89 256.939 214.641C256.939 214.391 257.013 214.11 257.161 213.799C257.235 213.549 257.198 213.112 257.05 212.488C257.05 212.177 257.05 211.677 257.05 210.991C257.05 210.305 257.013 209.744 256.939 209.307C256.864 208.558 256.827 208.153 256.827 208.09C256.902 208.028 256.939 207.966 256.939 207.903C256.716 207.279 256.605 206.843 256.605 206.593C256.679 206.344 256.679 206.094 256.605 205.845C256.605 205.221 256.531 204.691 256.382 204.254L256.271 203.131C256.197 202.819 256.123 202.57 256.049 202.382C255.974 202.133 255.9 201.852 255.826 201.54C255.678 200.792 255.604 200.386 255.604 200.324C255.678 200.261 255.678 200.168 255.604 200.043C255.752 199.856 255.752 199.575 255.604 199.201C255.455 198.827 255.381 198.515 255.381 198.265C255.307 197.641 255.27 197.267 255.27 197.142C255.27 196.955 255.27 196.768 255.27 196.581C255.344 196.331 255.381 196.051 255.381 195.739C255.307 195.364 255.27 194.959 255.27 194.522C255.27 194.023 255.344 193.524 255.492 193.025C255.641 192.9 255.826 192.775 256.049 192.651C256.345 192.526 256.605 192.401 256.827 192.276C257.421 192.152 257.792 192.12 257.94 192.183C258.088 192.183 258.237 192.183 258.385 192.183C259.275 192.058 260.017 191.933 260.61 191.808C261.055 191.933 261.574 191.996 262.167 191.996C262.761 191.933 263.28 191.902 263.725 191.902C264.096 191.777 264.467 191.746 264.838 191.808C265.208 191.871 265.616 191.871 266.061 191.808C266.951 191.871 267.396 191.902 267.396 191.902C268.064 191.777 268.398 191.746 268.398 191.808C268.472 191.808 268.583 191.808 268.731 191.808C269.547 191.746 269.918 191.715 269.844 191.715C269.77 191.653 269.807 191.684 269.955 191.808C270.697 191.933 271.179 192.058 271.401 192.183C271.624 192.308 271.921 192.401 272.291 192.464C272.736 193.15 272.959 193.586 272.959 193.774C273.033 193.961 273.107 194.21 273.181 194.522C273.181 194.709 273.144 194.896 273.07 195.084C273.07 195.208 273.107 195.364 273.181 195.551C273.256 196.051 273.256 196.331 273.181 196.394C273.181 196.456 273.181 196.55 273.181 196.674C273.256 196.799 273.256 196.986 273.181 197.236C273.181 197.423 273.181 197.61 273.181 197.797C273.256 198.109 273.33 198.421 273.404 198.733C273.552 199.045 273.589 199.294 273.515 199.482C273.441 199.731 273.478 200.137 273.626 200.698C273.626 201.01 273.589 201.291 273.515 201.54C273.515 201.79 273.589 202.07 273.738 202.382C273.589 202.757 273.552 203.162 273.626 203.599C273.701 203.973 273.701 204.379 273.626 204.815C273.626 205.065 273.589 205.314 273.515 205.564C273.515 205.751 273.515 205.969 273.515 206.219C273.441 206.531 273.367 206.812 273.293 207.061C273.293 207.248 273.293 207.467 273.293 207.716C273.293 207.903 273.33 208.122 273.404 208.371C273.478 208.621 273.515 208.839 273.515 209.026C273.441 209.962 273.367 210.835 273.293 211.646C273.293 212.395 273.256 213.112 273.181 213.799C273.181 214.173 273.181 214.547 273.181 214.921C273.181 215.233 273.107 215.514 272.959 215.764C272.959 216.138 272.922 216.45 272.848 216.699C272.848 216.886 272.848 217.042 272.848 217.167C272.848 218.228 272.885 219.132 272.959 219.881C273.033 220.629 273.07 221.378 273.07 222.127C273.07 222.626 273.033 223.062 272.959 223.437C272.885 223.811 272.885 224.216 272.959 224.653C273.181 225.402 273.256 225.901 273.181 226.15C273.181 226.4 273.219 226.681 273.293 226.993C273.367 227.616 273.404 228.053 273.404 228.303C273.478 228.552 273.515 228.926 273.515 229.425C273.515 230.049 273.515 230.58 273.515 231.016C273.589 231.391 273.775 231.734 274.071 232.046C273.923 232.357 273.886 232.669 273.96 232.981C274.034 233.293 274.071 233.605 274.071 233.917C274.146 234.104 274.146 234.291 274.071 234.478C273.997 234.666 273.997 234.853 274.071 235.04C274.071 235.165 274.071 235.352 274.071 235.601C274.146 235.789 274.183 235.944 274.183 236.069C274.331 236.755 274.405 237.13 274.405 237.192C274.405 237.192 274.442 237.255 274.516 237.379C274.591 238.689 274.739 239.563 274.961 239.999C274.961 240.311 275.036 240.717 275.184 241.216C275.332 241.964 275.406 242.464 275.406 242.713C275.481 242.9 275.481 243.15 275.406 243.462C274.887 244.023 274.628 244.304 274.628 244.304C273.96 244.865 273.404 245.146 272.959 245.146C272.069 245.333 271.476 245.396 271.179 245.333C270.956 245.333 270.734 245.396 270.511 245.52C269.918 245.52 269.584 245.489 269.51 245.427C269.51 245.427 269.436 245.427 269.288 245.427C268.472 245.302 267.953 245.24 267.73 245.24C266.84 245.364 266.358 245.396 266.284 245.333C266.21 245.271 266.098 245.24 265.95 245.24C265.208 245.302 264.726 245.302 264.504 245.24C264.281 245.24 264.059 245.24 263.836 245.24C263.095 245.427 262.612 245.489 262.39 245.427C262.167 245.427 261.982 245.427 261.834 245.427C261.24 245.427 260.758 245.427 260.387 245.427C260.017 245.489 259.646 245.458 259.275 245.333C258.83 245.333 258.422 245.24 258.051 245.052C257.532 244.616 257.235 244.397 257.161 244.397C257.161 244.397 257.124 244.366 257.05 244.304L256.939 243.93Z" fill="white"/>
<path d="M297.768 189.469C297.842 189.781 297.917 190.031 297.991 190.218C298.139 190.405 298.324 190.53 298.547 190.592C298.695 191.153 298.769 191.497 298.769 191.621C298.844 191.684 298.955 191.715 299.103 191.715L299.214 193.025C299.289 193.274 299.363 193.524 299.437 193.774C299.511 193.961 299.585 194.179 299.659 194.429C299.882 195.302 299.993 195.988 299.993 196.487C300.067 196.924 300.179 197.361 300.327 197.797C300.698 198.546 300.883 199.107 300.883 199.482C300.957 199.856 301.069 200.168 301.217 200.417C301.365 200.979 301.439 201.291 301.439 201.353C301.439 201.415 301.439 201.54 301.439 201.727C301.588 201.915 301.699 202.102 301.773 202.289C301.922 202.476 301.922 202.726 301.773 203.037C301.922 203.287 301.996 203.536 301.996 203.786C301.996 204.036 302.033 204.316 302.107 204.628C302.404 205.252 302.552 205.658 302.552 205.845C302.552 205.969 302.589 206.094 302.663 206.219C302.886 206.78 302.997 207.155 302.997 207.342C303.071 207.467 303.108 207.623 303.108 207.81C303.182 207.997 303.22 208.184 303.22 208.371C303.22 208.558 303.257 208.777 303.331 209.026C303.331 209.151 303.479 209.525 303.776 210.149C303.924 210.898 304.072 211.49 304.221 211.927C304.295 212.426 304.48 212.8 304.777 213.05C304.703 213.299 304.703 213.58 304.777 213.892C304.851 214.204 304.925 214.547 305 214.921C305.074 215.358 305.185 215.701 305.333 215.951C305.482 216.2 305.63 216.45 305.778 216.699C306.223 217.573 306.483 218.134 306.557 218.384C306.705 218.633 306.78 218.914 306.78 219.226C306.928 219.6 307.039 219.881 307.113 220.068C307.262 220.193 307.373 220.318 307.447 220.442C307.521 220.754 307.558 221.035 307.558 221.284C307.633 221.534 307.781 221.721 308.003 221.846C308.003 222.595 308.04 223.031 308.115 223.156C308.189 223.218 308.263 223.312 308.337 223.437C308.93 223 309.227 222.813 309.227 222.875C309.227 222.875 309.264 222.844 309.338 222.782C309.635 222.345 309.746 222.095 309.672 222.033C309.672 221.908 309.746 221.784 309.895 221.659C310.043 220.973 310.154 220.567 310.228 220.442C310.303 220.255 310.377 220.006 310.451 219.694C310.525 219.132 310.562 218.789 310.562 218.664C310.636 218.54 310.673 218.415 310.673 218.29C310.97 217.541 311.118 217.074 311.118 216.886C311.193 216.637 311.304 216.419 311.452 216.231C311.601 215.857 311.675 215.576 311.675 215.389C311.675 215.202 311.749 215.046 311.897 214.921C312.046 214.36 312.12 214.017 312.12 213.892C312.12 213.705 312.194 213.58 312.342 213.518C312.416 213.206 312.491 212.956 312.565 212.769C312.639 212.52 312.713 212.27 312.787 212.021C312.861 210.96 312.936 210.305 313.01 210.056C313.381 209.182 313.603 208.434 313.677 207.81C313.826 207.186 313.974 206.531 314.122 205.845C314.271 205.034 314.308 204.566 314.233 204.441C314.233 204.254 314.233 204.098 314.233 203.973C314.382 203.474 314.493 203.162 314.567 203.037C314.641 202.913 314.604 202.757 314.456 202.57C314.753 202.133 314.864 201.665 314.79 201.166C314.79 200.667 314.864 200.199 315.012 199.762C315.235 199.076 315.346 198.702 315.346 198.639C315.42 198.577 315.531 198.483 315.68 198.359L315.791 196.394C316.162 195.895 316.347 195.583 316.347 195.458C316.347 195.271 316.459 195.115 316.681 194.99C316.533 194.491 316.496 194.023 316.57 193.586C316.718 193.087 316.718 192.713 316.57 192.464C316.718 192.339 316.792 192.152 316.792 191.902C316.866 191.653 316.978 191.465 317.126 191.341C317.2 191.029 317.274 190.779 317.349 190.592C317.423 190.405 317.571 190.311 317.794 190.311C318.164 190.062 318.424 189.906 318.572 189.843C318.721 189.781 318.869 189.75 319.017 189.75C319.462 189.687 319.722 189.625 319.796 189.563C319.944 189.5 320.093 189.469 320.241 189.469C320.909 189.532 321.465 189.5 321.91 189.376C322.429 189.438 322.8 189.532 323.022 189.656C323.245 189.781 323.467 189.781 323.69 189.656C324.283 189.843 324.654 190.031 324.802 190.218C325.173 190.093 325.507 190.155 325.804 190.405C326.175 190.654 326.471 190.717 326.694 190.592C327.51 191.029 327.992 191.278 328.14 191.341C328.288 191.403 328.437 191.465 328.585 191.528C329.327 191.777 329.809 191.933 330.031 191.996C330.254 191.996 330.439 192.027 330.588 192.089C331.033 192.152 331.478 192.308 331.923 192.557C332.59 192.619 333.072 192.775 333.369 193.025C334.111 193.274 334.481 193.43 334.481 193.493C334.481 193.555 334.593 193.555 334.815 193.493C334.963 193.805 335.149 194.054 335.371 194.241C335.594 194.429 335.668 194.772 335.594 195.271C335.223 195.957 334.963 196.456 334.815 196.768C334.741 197.08 334.63 197.298 334.481 197.423C334.333 198.109 334.222 198.483 334.148 198.546C334.073 198.546 333.999 198.608 333.925 198.733C333.703 199.045 333.554 199.294 333.48 199.482C333.406 199.669 333.332 199.794 333.258 199.856C333.109 200.23 332.961 200.667 332.813 201.166C332.664 201.603 332.516 202.039 332.368 202.476C332.219 202.913 332.071 203.256 331.923 203.505C331.774 203.692 331.626 203.911 331.478 204.16C331.181 204.847 330.958 205.314 330.81 205.564C330.662 205.751 330.55 205.938 330.476 206.125C330.476 206.313 330.402 206.468 330.254 206.593C330.031 207.03 329.92 207.467 329.92 207.903C329.401 208.465 329.141 208.777 329.141 208.839L328.919 209.868L328.474 210.898C328.325 211.022 328.177 211.178 328.029 211.366C327.955 211.49 327.955 211.677 328.029 211.927C327.658 212.676 327.435 213.081 327.361 213.143C327.361 213.206 327.324 213.299 327.25 213.424C327.027 214.048 326.879 214.422 326.805 214.547C326.508 215.233 326.323 215.608 326.249 215.67C326.1 215.857 325.952 216.169 325.804 216.606C325.73 216.98 325.618 217.323 325.47 217.635C325.247 218.009 325.099 218.321 325.025 218.571C324.951 218.758 324.877 218.945 324.802 219.132C324.728 219.319 324.654 219.507 324.58 219.694C324.58 219.818 324.543 220.006 324.469 220.255C324.395 220.442 324.283 220.661 324.135 220.91C324.061 221.097 324.061 221.347 324.135 221.659C323.764 221.908 323.616 222.251 323.69 222.688C323.467 223.187 323.282 223.561 323.134 223.811C323.059 224.061 322.948 224.341 322.8 224.653C322.577 225.339 322.392 225.745 322.244 225.87C322.169 225.994 322.207 226.119 322.355 226.244C322.058 226.805 321.836 227.211 321.687 227.46C321.613 227.648 321.539 227.897 321.465 228.209C321.168 228.833 320.983 229.269 320.909 229.519C320.834 229.706 320.76 229.862 320.686 229.987C320.538 230.673 320.464 231.016 320.464 231.016L319.685 232.42L319.129 233.543C319.054 233.792 318.98 234.011 318.906 234.198C318.906 234.385 318.869 234.634 318.795 234.946C318.572 235.383 318.461 235.633 318.461 235.695C318.535 235.757 318.572 235.851 318.572 235.976C318.276 236.475 318.053 236.911 317.905 237.286C317.831 237.598 317.719 237.91 317.571 238.221C317.497 238.471 317.46 238.658 317.46 238.783C317.46 238.908 317.423 239.126 317.349 239.438C317.126 240.187 316.978 240.686 316.904 240.935C316.829 241.122 316.829 241.372 316.904 241.684C316.607 242.557 316.347 243.087 316.125 243.274C315.902 243.462 315.754 243.649 315.68 243.836C315.68 243.961 315.606 244.085 315.457 244.21C315.161 244.772 315.049 245.052 315.124 245.052C315.272 245.052 315.309 245.115 315.235 245.24C314.79 245.739 314.308 246.051 313.788 246.175C313.343 246.362 312.861 246.518 312.342 246.643C311.823 246.768 311.526 246.862 311.452 246.924C311.378 247.049 311.267 247.111 311.118 247.111C310.303 247.111 309.746 247.173 309.45 247.298C309.153 247.298 308.819 247.329 308.448 247.392C308.078 247.454 307.67 247.485 307.225 247.485C307.002 247.423 306.594 247.392 306.001 247.392C305.185 247.267 304.666 247.142 304.443 247.017C303.553 246.643 302.997 246.362 302.775 246.175C302.552 245.988 302.367 245.739 302.218 245.427C301.477 244.865 301.032 244.491 300.883 244.304C300.512 243.555 300.327 243.119 300.327 242.994C300.327 242.869 300.29 242.713 300.216 242.526C299.993 241.964 299.882 241.465 299.882 241.029C299.659 240.405 299.474 239.906 299.326 239.532C299.029 239.032 298.881 238.721 298.881 238.596C298.881 238.471 298.881 238.346 298.881 238.221C298.658 237.66 298.473 237.192 298.324 236.818C298.102 236.381 297.954 236.038 297.879 235.789C297.879 235.539 297.805 235.258 297.657 234.946L297.212 233.636C296.915 233.2 296.73 232.857 296.656 232.607C296.656 232.357 296.581 232.108 296.433 231.858C296.359 231.609 296.174 231.297 295.877 230.923C295.729 230.673 295.617 230.455 295.543 230.268C295.469 230.018 295.358 229.831 295.209 229.706C295.061 229.394 294.913 229.082 294.764 228.77C294.69 228.459 294.579 228.147 294.431 227.835C294.208 227.211 294.06 226.805 293.986 226.618C293.911 226.369 293.8 226.182 293.652 226.057C293.652 225.62 293.578 225.371 293.429 225.308C293.281 225.183 293.281 225.059 293.429 224.934C293.058 224.061 292.873 223.593 292.873 223.53C292.651 223.094 292.502 222.813 292.428 222.688C292.354 222.501 292.28 222.345 292.206 222.22C292.057 221.472 291.946 221.035 291.872 220.91C291.798 220.785 291.723 220.661 291.649 220.536C291.204 219.725 290.871 219.07 290.648 218.571C290.574 218.259 290.463 218.041 290.314 217.916C290.166 217.729 290.055 217.541 289.981 217.354C289.906 216.731 289.832 216.325 289.758 216.138C289.684 215.951 289.61 215.764 289.536 215.576C289.239 215.14 289.091 214.89 289.091 214.828C289.165 214.765 289.128 214.672 288.979 214.547C288.979 214.235 288.942 214.017 288.868 213.892C288.868 213.705 288.831 213.549 288.757 213.424C288.46 212.8 288.312 212.457 288.312 212.395C288.386 212.333 288.386 212.27 288.312 212.208C288.089 211.833 287.978 211.584 287.978 211.459C287.978 211.272 287.941 211.116 287.867 210.991C287.496 210.056 287.273 209.525 287.199 209.4C287.051 209.151 286.903 208.933 286.754 208.745C286.606 208.558 286.569 208.371 286.643 208.184C286.346 207.685 286.124 207.373 285.975 207.248C285.605 206.562 285.419 206.219 285.419 206.219C285.271 205.47 285.16 205.065 285.085 205.002C285.011 204.878 284.937 204.753 284.863 204.628C284.64 204.192 284.381 203.755 284.084 203.318C283.787 202.694 283.602 202.351 283.528 202.289C283.454 202.164 283.38 202.039 283.305 201.915C283.157 201.665 283.046 201.447 282.972 201.26C282.897 201.01 282.823 200.729 282.749 200.417C282.23 199.544 281.859 198.983 281.637 198.733C281.192 197.984 280.895 197.517 280.747 197.329C280.598 197.08 280.376 196.893 280.079 196.768C279.857 196.456 279.634 196.144 279.412 195.832C279.189 195.52 279.004 195.208 278.855 194.896C278.855 194.21 278.929 193.867 279.078 193.867C279.152 193.867 279.189 193.805 279.189 193.68C279.782 193.119 280.079 192.838 280.079 192.838L281.192 192.183C282.082 191.996 282.675 191.871 282.972 191.808C283.342 191.746 283.491 191.59 283.417 191.341C284.381 191.403 285.011 191.372 285.308 191.247C285.605 191.122 285.864 191.091 286.087 191.153C287.051 190.966 287.644 190.779 287.867 190.592C288.238 190.717 288.497 190.748 288.645 190.686C288.794 190.561 288.942 190.498 289.091 190.498C289.313 190.436 289.536 190.405 289.758 190.405C290.055 190.405 290.277 190.311 290.426 190.124C290.871 190.187 291.316 190.155 291.761 190.031C292.28 189.906 292.725 189.781 293.096 189.656C293.911 189.407 294.431 189.313 294.653 189.376C294.876 189.376 295.061 189.344 295.209 189.282C295.803 189.157 296.174 189.095 296.322 189.095C296.47 189.032 296.619 189.001 296.767 189.001L297.768 189.469Z" fill="white"/>
<path d="M337.596 214.36C337.893 213.674 338.041 213.112 338.041 212.676C338.041 212.239 338.153 211.896 338.375 211.646V210.43C338.746 209.681 338.931 209.213 338.931 209.026C339.08 208.34 339.154 207.966 339.154 207.903C339.154 207.779 339.191 207.654 339.265 207.529C339.339 207.279 339.488 206.874 339.71 206.313C340.007 205.564 340.229 205.034 340.378 204.722C340.526 204.41 340.674 204.129 340.823 203.88C341.194 203.381 341.379 203.069 341.379 202.944C341.379 202.819 341.453 202.694 341.602 202.57C341.75 202.382 341.935 202.195 342.158 202.008C342.38 201.759 342.492 201.478 342.492 201.166C343.085 200.542 343.604 200.168 344.049 200.043C344.346 199.419 344.605 199.076 344.828 199.014C345.05 198.889 345.125 198.671 345.05 198.359C345.347 198.234 345.57 198.109 345.718 197.984C345.866 197.797 346.126 197.641 346.497 197.517C346.793 196.955 346.942 196.643 346.942 196.581C347.016 196.518 347.127 196.456 347.275 196.394C347.498 196.269 347.72 196.113 347.943 195.926C348.165 195.739 348.388 195.551 348.61 195.364C349.204 195.052 349.612 194.896 349.834 194.896C350.576 194.46 351.132 194.179 351.503 194.054C351.874 193.93 352.133 193.711 352.282 193.399C352.578 193.399 352.801 193.368 352.949 193.306C353.172 193.243 353.394 193.181 353.617 193.119C354.358 192.807 354.766 192.619 354.841 192.557C354.989 192.495 355.1 192.464 355.174 192.464C355.323 192.339 355.508 192.214 355.731 192.089C355.953 191.964 356.138 191.84 356.287 191.715C356.732 191.715 357.14 191.621 357.511 191.434L358.846 191.247C359.587 190.998 359.995 190.904 360.069 190.966C360.218 191.029 360.403 191.029 360.626 190.966C361.145 190.904 361.479 190.842 361.627 190.779C361.775 190.654 361.924 190.561 362.072 190.498C362.665 190.436 363.333 190.342 364.074 190.218C364.371 190.155 364.594 190.093 364.742 190.031C364.964 189.968 365.224 189.906 365.521 189.843C366.114 189.906 366.596 189.906 366.967 189.843C367.338 189.781 367.709 189.75 368.08 189.75C368.376 189.75 368.673 189.781 368.97 189.843C369.266 189.906 369.563 189.968 369.86 190.031C370.379 190.031 370.824 190.031 371.195 190.031C371.64 190.031 372.122 190.062 372.641 190.124C372.938 190.311 373.234 190.467 373.531 190.592C373.902 190.654 374.273 190.748 374.643 190.873C375.533 191.185 376.164 191.465 376.535 191.715C377.425 191.902 378.092 192.12 378.537 192.37C379.279 192.744 379.724 192.963 379.872 193.025C380.021 193.087 380.169 193.119 380.317 193.119C381.281 193.555 381.986 193.898 382.431 194.148C382.876 194.46 383.21 194.709 383.432 194.896C383.581 195.021 383.729 195.115 383.877 195.177C384.1 195.24 384.322 195.333 384.545 195.458L385.546 196.674C385.917 196.986 386.139 197.205 386.214 197.329C386.288 197.392 386.399 197.392 386.547 197.329C386.918 197.828 387.104 198.14 387.104 198.265C387.178 198.328 387.289 198.39 387.437 198.452C388.031 199.138 388.327 199.513 388.327 199.575C388.772 200.199 389.032 200.604 389.106 200.792C389.255 200.916 389.403 201.104 389.551 201.353C389.774 201.977 389.922 202.382 389.996 202.57C390.145 202.757 390.256 202.944 390.33 203.131C390.552 203.443 390.664 203.692 390.664 203.88C390.738 204.067 390.886 204.192 391.109 204.254C391.035 204.566 391.072 204.878 391.22 205.19C391.368 205.502 391.517 205.782 391.665 206.032C391.665 206.281 391.739 206.656 391.887 207.155C392.036 207.903 392.11 208.371 392.11 208.558C392.184 208.745 392.221 208.901 392.221 209.026C392.444 209.4 392.518 209.681 392.444 209.868C392.444 209.993 392.481 210.149 392.555 210.336C392.555 210.586 392.592 210.804 392.666 210.991C392.74 211.178 392.815 211.366 392.889 211.553C393.037 212.613 393.037 213.799 392.889 215.109C392.815 215.545 392.74 215.888 392.666 216.138C392.666 216.387 392.592 216.699 392.444 217.074C391.702 217.323 391.183 217.51 390.886 217.635C390.367 217.947 389.922 218.103 389.551 218.103C389.18 218.103 388.884 218.259 388.661 218.571C388.068 218.446 387.734 218.446 387.66 218.571C387.66 218.696 387.586 218.758 387.437 218.758C386.622 219.007 386.139 219.132 385.991 219.132C385.843 219.132 385.732 219.195 385.657 219.319C385.361 219.257 385.064 219.288 384.767 219.413C384.545 219.538 384.285 219.631 383.989 219.694C383.024 219.631 382.171 219.725 381.43 219.974C380.836 220.099 380.243 220.255 379.65 220.442C379.131 220.567 378.574 220.692 377.981 220.817C377.388 221.066 376.868 221.191 376.423 221.191C375.682 221.565 375.163 221.784 374.866 221.846C374.569 221.846 374.31 221.908 374.087 222.033C373.642 222.22 373.123 222.407 372.53 222.595C371.936 222.719 371.343 222.75 370.75 222.688C370.601 222.813 370.416 222.875 370.193 222.875C370.045 222.813 369.822 222.813 369.526 222.875C368.784 223.125 368.413 223.281 368.413 223.343C368.413 223.343 368.376 223.343 368.302 223.343C367.931 223.468 367.56 223.561 367.19 223.624C366.819 223.624 366.448 223.686 366.077 223.811C365.854 223.936 365.521 224.029 365.076 224.092C364.705 224.154 364.371 224.279 364.074 224.466C363.852 224.404 363.629 224.435 363.407 224.56C363.184 224.622 362.925 224.684 362.628 224.747C362.257 224.56 361.998 224.497 361.849 224.56C361.701 224.56 361.553 224.528 361.404 224.466C361.108 224.216 360.848 224.092 360.626 224.092C360.403 224.029 360.218 223.967 360.069 223.905C359.55 223.468 359.254 223.156 359.179 222.969C359.031 222.844 358.846 222.688 358.623 222.501C358.475 222.314 358.326 222.158 358.178 222.033C358.03 221.721 357.807 221.472 357.511 221.284C357.288 221.097 357.103 220.848 356.954 220.536C356.361 220.099 356.064 219.756 356.064 219.507C355.545 218.883 355.248 218.54 355.174 218.477C355.174 218.415 355.174 218.321 355.174 218.197C354.878 217.885 354.581 217.573 354.284 217.261C353.988 216.949 353.765 216.543 353.617 216.044C353.246 216.793 353.06 217.292 353.06 217.541C353.135 217.791 353.172 218.041 353.172 218.29C353.246 218.852 353.394 219.288 353.617 219.6C353.468 219.725 353.431 219.912 353.505 220.162C353.58 220.349 353.617 220.567 353.617 220.817C353.691 221.191 353.728 221.472 353.728 221.659C353.728 221.784 353.765 221.908 353.839 222.033L354.062 223.156C354.507 223.967 354.729 224.466 354.729 224.653C354.803 224.778 354.878 224.903 354.952 225.027C355.471 225.527 355.805 225.932 355.953 226.244L356.509 227.273C357.103 227.959 357.436 228.365 357.511 228.49C358.03 228.989 358.438 229.363 358.734 229.613C359.699 230.236 360.218 230.673 360.292 230.923C361.034 231.172 361.516 231.422 361.738 231.671C362.183 231.796 362.443 231.89 362.517 231.952C362.665 232.014 362.814 232.077 362.962 232.139C363.11 232.264 363.296 232.357 363.518 232.42C363.741 232.482 363.926 232.576 364.074 232.701C364.445 232.763 364.853 232.794 365.298 232.794C366.188 232.981 366.856 233.075 367.301 233.075C367.82 233.012 368.265 233.044 368.636 233.168C369.229 233.168 369.822 233.106 370.416 232.981C370.787 232.857 371.046 232.794 371.195 232.794C371.343 232.794 371.491 232.732 371.64 232.607C372.085 232.545 372.344 232.513 372.418 232.513C372.567 232.451 372.715 232.389 372.863 232.326C373.531 232.014 373.902 231.858 373.976 231.858C374.05 231.796 374.161 231.702 374.31 231.578C375.125 231.328 375.533 231.203 375.533 231.203C376.053 230.891 376.349 230.673 376.423 230.548C376.498 230.361 376.609 230.205 376.757 230.08C377.276 229.769 377.573 229.613 377.647 229.613C377.796 229.55 377.87 229.457 377.87 229.332C378.463 229.145 378.76 229.051 378.76 229.051C378.834 228.989 378.945 228.989 379.093 229.051C379.613 228.926 379.909 228.895 379.984 228.958C380.132 228.958 380.243 228.989 380.317 229.051C380.54 229.176 380.762 229.332 380.985 229.519C381.207 229.644 381.467 229.769 381.764 229.893C382.209 230.33 382.468 230.611 382.542 230.735C382.616 230.798 382.728 230.86 382.876 230.923C383.247 231.546 383.432 231.858 383.432 231.858C383.803 232.295 384.026 232.545 384.1 232.607C384.248 232.607 384.359 232.669 384.434 232.794C384.73 233.418 384.916 233.761 384.99 233.823C385.064 233.823 385.175 233.886 385.324 234.011C385.546 234.385 385.732 234.634 385.88 234.759C386.102 234.884 386.288 235.04 386.436 235.227C386.659 235.352 386.807 235.508 386.881 235.695C387.029 235.82 387.215 235.944 387.437 236.069C387.734 236.88 387.919 237.379 387.994 237.566C388.142 237.691 388.253 237.91 388.327 238.221C388.327 238.346 388.29 238.502 388.216 238.689C388.142 238.876 388.105 239.064 388.105 239.251C387.586 239.937 387.252 240.405 387.104 240.654C386.955 240.842 386.733 240.998 386.436 241.122C386.139 241.309 385.769 241.465 385.324 241.59C384.953 241.715 384.693 241.964 384.545 242.339C384.248 242.401 383.989 242.432 383.766 242.432C383.544 242.432 383.432 242.588 383.432 242.9C382.691 243.15 382.283 243.274 382.209 243.274C381.615 243.399 381.17 243.586 380.874 243.836C379.984 244.085 379.39 244.273 379.093 244.397C378.871 244.522 378.611 244.647 378.315 244.772C377.647 244.772 377.091 244.834 376.646 244.959C375.83 245.146 375.274 245.271 374.977 245.333C374.68 245.396 374.384 245.458 374.087 245.52C372.975 245.707 372.233 245.801 371.862 245.801C371.491 245.801 371.046 245.863 370.527 245.988C370.305 246.051 370.008 246.113 369.637 246.175C369.266 246.238 369.007 246.3 368.858 246.362C368.487 246.362 368.117 246.331 367.746 246.269C367.449 246.269 367.152 246.206 366.856 246.082C365.817 246.082 365.335 246.144 365.409 246.269C365.187 246.144 364.927 246.082 364.631 246.082C364.408 246.082 364.186 246.051 363.963 245.988C363.147 245.863 362.591 245.739 362.294 245.614H361.071C360.7 245.551 360.366 245.458 360.069 245.333C359.773 245.271 359.439 245.177 359.068 245.052C358.326 244.865 357.918 244.772 357.844 244.772C357.77 244.772 357.659 244.74 357.511 244.678C356.769 244.366 356.25 244.148 355.953 244.023C354.989 243.774 354.433 243.618 354.284 243.555C353.913 243.306 353.654 243.181 353.505 243.181C353.357 243.181 353.209 243.15 353.06 243.087C352.69 242.775 352.43 242.588 352.282 242.526C352.133 242.464 351.985 242.37 351.837 242.245C351.392 241.871 351.095 241.684 350.947 241.684C350.798 241.621 350.65 241.59 350.502 241.59C349.908 241.029 349.538 240.686 349.389 240.561C349.241 240.436 349.092 240.311 348.944 240.187C348.573 239.812 348.314 239.532 348.165 239.344C348.017 239.157 347.832 238.97 347.609 238.783C347.016 238.159 346.645 237.785 346.497 237.66C346.348 237.473 346.163 237.317 345.94 237.192C345.866 237.005 345.718 236.849 345.495 236.724C345.347 236.6 345.199 236.475 345.05 236.35C344.754 235.851 344.568 235.539 344.494 235.414C344.494 235.289 344.383 235.258 344.16 235.321C343.938 234.759 343.604 234.291 343.159 233.917C342.937 233.48 342.788 233.231 342.714 233.168C342.714 233.106 342.714 233.012 342.714 232.888C342.269 232.326 342.009 232.014 341.935 231.952C341.268 231.203 340.86 230.673 340.711 230.361C340.489 229.987 340.341 229.769 340.266 229.706C340.192 229.644 340.081 229.581 339.933 229.519C339.636 228.521 339.339 227.928 339.043 227.741C338.82 227.492 338.746 227.148 338.82 226.712C338.672 226.026 338.486 225.589 338.264 225.402C338.116 225.215 338.004 225.027 337.93 224.84V223.624C337.856 223.374 337.819 222.969 337.819 222.407C337.745 222.158 337.671 221.908 337.596 221.659C337.522 221.409 337.448 221.129 337.374 220.817C337.374 220.068 337.411 219.663 337.485 219.6C337.263 219.226 337.189 218.758 337.263 218.197C337.411 217.573 337.485 217.011 337.485 216.512C337.559 216.138 337.596 215.826 337.596 215.576C337.596 215.265 337.671 215.015 337.819 214.828L337.596 214.36ZM373.42 207.623C373.271 207.498 373.16 207.342 373.086 207.155C373.086 206.968 373.012 206.749 372.863 206.5C372.493 206.313 372.196 206.094 371.973 205.845C371.825 205.533 371.528 205.314 371.083 205.19C370.935 204.94 370.638 204.784 370.193 204.722C369.822 204.659 369.526 204.503 369.303 204.254C368.932 204.192 368.599 204.16 368.302 204.16C368.005 204.16 367.672 204.129 367.301 204.067C366.485 204.004 366.003 204.004 365.854 204.067C365.261 204.067 364.853 204.098 364.631 204.16C364.408 204.223 364.186 204.285 363.963 204.347C363.815 204.41 363.592 204.441 363.296 204.441C363.073 204.379 362.888 204.379 362.739 204.441C361.849 204.94 361.182 205.252 360.737 205.377C360.069 206.063 359.661 206.468 359.513 206.593C359.068 207.03 358.809 207.279 358.734 207.342C358.66 207.404 358.586 207.498 358.512 207.623C357.918 208.184 357.548 208.59 357.399 208.839C356.732 209.525 356.324 209.9 356.176 209.962C356.027 210.149 355.879 210.367 355.731 210.617C355.582 210.804 355.397 210.96 355.174 211.085C354.878 211.771 354.655 212.208 354.507 212.395C354.433 212.52 354.396 212.707 354.396 212.956C354.841 212.832 355.286 212.738 355.731 212.676C356.25 212.551 356.695 212.426 357.066 212.301C357.585 212.301 357.918 212.27 358.067 212.208C358.289 212.145 358.512 212.052 358.734 211.927C359.105 211.802 359.439 211.74 359.736 211.74C360.032 211.677 360.44 211.615 360.959 211.553C361.701 211.303 362.183 211.147 362.406 211.085C362.702 211.022 362.962 210.96 363.184 210.898C363.555 210.773 363.926 210.711 364.297 210.711C364.742 210.711 365.076 210.648 365.298 210.523C366.337 210.274 367.041 210.118 367.412 210.056C368.005 210.056 368.45 210.024 368.747 209.962C369.563 209.712 370.082 209.588 370.305 209.588C370.972 209.525 371.528 209.432 371.973 209.307C372.493 209.12 372.938 208.901 373.308 208.652C373.679 208.34 373.79 208.122 373.642 207.997C373.568 207.872 373.494 207.747 373.42 207.623Z" fill="white"/>
<path d="M57 130L81.2487 170.5H32.7513L57 130Z" fill="#7C0046"/>
<path d="M113 130L137.249 170.5H88.7513L113 130Z" fill="#7C0046"/>
<path d="M169 130L193.249 170.5H144.751L169 130Z" fill="#7C0046"/>
<path d="M225 130L249.249 170.5H200.751L225 130Z" fill="#7C0046"/>
<path d="M281 130L305.249 170.5H256.751L281 130Z" fill="#7C0046"/>
<path d="M337 130L361.249 170.5H312.751L337 130Z" fill="#7C0046"/>
<path d="M393 130L417.249 170.5H368.751L393 130Z" fill="#7C0046"/>
<path d="M85 275L109.249 315.5H60.7513L85 275Z" fill="#7C0046"/>
<path d="M141 275L165.249 315.5H116.751L141 275Z" fill="#7C0046"/>
<path d="M197 275L221.249 315.5H172.751L197 275Z" fill="#7C0046"/>
<path d="M253 275L277.249 315.5H228.751L253 275Z" fill="#7C0046"/>
<path d="M309 275L333.249 315.5H284.751L309 275Z" fill="#7C0046"/>
<path d="M365 275L389.249 315.5H340.751L365 275Z" fill="#7C0046"/>
<path d="M393 301.969L368.751 261.469H417.249L393 301.969Z" fill="#7C0046"/>
<path d="M337 301.98L312.751 261.48H361.249L337 301.98Z" fill="#7C0046"/>
<path d="M281 301.99L256.751 261.49H305.249L281 301.99Z" fill="#7C0046"/>
<path d="M225 302L200.751 261.5H249.249L225 302Z" fill="#7C0046"/>
<path d="M169 302.01L144.751 261.51H193.249L169 302.01Z" fill="#7C0046"/>
<path d="M113 302.021L88.7513 261.521H137.249L113 302.021Z" fill="#7C0046"/>
<path d="M57 302.031L32.7513 261.531H81.2487L57 302.031Z" fill="#7C0046"/>
<path d="M365 157.01L340.751 116.51H389.249L365 157.01Z" fill="#7C0046"/>
<path d="M309 157.02L284.751 116.52H333.249L309 157.02Z" fill="#7C0046"/>
<path d="M253 157.031L228.751 116.531H277.249L253 157.031Z" fill="#7C0046"/>
<path d="M197 157.041L172.751 116.541H221.249L197 157.041Z" fill="#7C0046"/>
<path d="M141 157.051L116.751 116.551H165.249L141 157.051Z" fill="#7C0046"/>
<path d="M85 157.061L60.7513 116.561H109.249L85 157.061Z" fill="#7C0046"/>
<path d="M275 329C275 335.566 273.707 342.068 271.194 348.134C268.681 354.2 264.998 359.712 260.355 364.355C255.712 368.998 250.2 372.681 244.134 375.194C238.068 377.707 231.566 379 225 379C218.434 379 211.932 377.707 205.866 375.194C199.8 372.681 194.288 368.998 189.645 364.355C185.002 359.712 181.319 354.2 178.806 348.134C176.293 342.068 175 335.566 175 329L225 329H275Z" fill="#D36000"/>
<path d="M275 329C275 335.566 273.707 342.068 271.194 348.134C268.681 354.2 264.998 359.712 260.355 364.355C255.712 368.998 250.2 372.681 244.134 375.194C238.068 377.707 231.566 379 225 379C218.434 379 211.932 377.707 205.866 375.194C199.8 372.681 194.288 368.998 189.645 364.355C185.002 359.712 181.319 354.2 178.806 348.134C176.293 342.068 175 335.566 175 329L225 329H275Z" fill="url(#paint1_linear)"/>
<path d="M275 103C275 89.7392 269.732 77.0215 260.355 67.6447C250.979 58.2678 238.261 53 225 53C211.739 53 199.021 58.2678 189.645 67.6447C180.268 77.0215 175 89.7392 175 103L225 103H275Z" fill="#670000"/>
<path d="M275 103C275 89.7392 269.732 77.0215 260.355 67.6447C250.979 58.2678 238.261 53 225 53C211.739 53 199.021 58.2678 189.645 67.6447C180.268 77.0215 175 89.7392 175 103L225 103H275Z" fill="url(#paint2_linear)"/>
<path d="M92.5 368L166 343C166 343 181.5 373.5 166 368C150.5 362.5 92.5 368 92.5 368Z" fill="#E5E5E5" fill-opacity="0.5"/>
<path d="M363.141 353.806L285.768 360.177C285.768 360.177 278.152 326.823 291.849 335.928C305.546 345.033 363.141 353.806 363.141 353.806Z" fill="#E5E5E5" fill-opacity="0.5"/>
<path d="M318.356 414.072L262.892 386.672C262.892 386.672 278.649 357.96 282.078 370.645C285.508 383.329 318.356 414.072 318.356 414.072Z" fill="#E5E5E5" fill-opacity="0.5"/>
<path d="M243.81 439.047L211.875 396.778C211.875 396.778 250.906 387.918 243.859 396.816C236.812 405.714 243.81 439.047 243.81 439.047Z" fill="#E5E5E5" fill-opacity="0.5"/>
<path d="M143.678 423.932L179.77 373.69C179.77 373.69 205.522 393.925 192.448 395.236C179.374 396.548 143.678 423.932 143.678 423.932Z" fill="#E5E5E5" fill-opacity="0.5"/>
<path d="M360.172 83.6981L285.079 103.403C285.079 103.403 271.789 71.8774 286.859 78.4667C301.928 85.0559 360.172 83.6981 360.172 83.6981Z" fill="#E5E5E5" fill-opacity="0.5"/>
<path d="M89.2068 78.5933L166.838 77.745C166.838 77.745 172.06 111.557 159.046 101.5C146.032 91.4432 89.2068 78.5933 89.2068 78.5933Z" fill="#E5E5E5" fill-opacity="0.5"/>
<path d="M138.168 21.6672L191.541 52.9454C191.541 52.9454 173.781 80.4627 171.263 67.5666C168.745 54.6705 138.168 21.6672 138.168 21.6672Z" fill="#E5E5E5" fill-opacity="0.5"/>
<path d="M214.303 2.06143L243.148 46.4961C243.148 46.4961 203.585 52.5556 211.248 44.1821C218.91 35.8086 214.303 2.06143 214.303 2.06143Z" fill="#E5E5E5" fill-opacity="0.5"/>
<path d="M313.105 24.265L273.528 71.8114C273.528 71.8114 249.282 49.794 262.416 49.4167C275.55 49.0394 313.105 24.265 313.105 24.265Z" fill="#E5E5E5" fill-opacity="0.5"/>
<defs>
<linearGradient id="paint0_linear" x1="225" y1="0" x2="225" y2="450" gradientUnits="userSpaceOnUse">
<stop stop-color="#D36000"/>
<stop offset="1" stop-color="white" stop-opacity="0"/>
</linearGradient>
<linearGradient id="paint1_linear" x1="225" y1="279" x2="225" y2="379" gradientUnits="userSpaceOnUse">
<stop stop-color="#7C0046"/>
<stop offset="1" stop-color="white" stop-opacity="0"/>
</linearGradient>
<linearGradient id="paint2_linear" x1="225" y1="53" x2="225" y2="153" gradientUnits="userSpaceOnUse">
<stop stop-color="#670000"/>
<stop offset="1" stop-color="white" stop-opacity="0"/>
</linearGradient>
</defs>
</svg>
