<svg xmlns="http://www.w3.org/2000/svg" viewBox="0 0 88.645 110.853">
  <defs>
    <style>
      .cls-1 {
        fill: #5c808b;
      }

      .cls-2 {
        fill: #bc4e44;
      }

      .cls-3 {
        fill: #d3c599;
      }

      .cls-4 {
        fill: #cd9f41;
      }
    </style>
  </defs>
  <title>homepage_icon_guitar-head_feature-box</title>
  <g id="Layer_2" data-name="Layer 2">
    <g id="Layer_1-2" data-name="Layer 1">
      <g>
        <rect class="cls-1" x="29.021" y="86.6" width="30.601" height="2.87"/>
        <rect class="cls-2" x="27.772" y="79.693" width="2.87" height="31.161"/>
        <rect class="cls-2" x="58.002" y="79.693" width="2.87" height="31.161"/>
        <path class="cls-3" d="M54.576,26.591a6.667,6.667,0,1,1,6.667-6.667A6.676,6.676,0,0,1,54.576,26.591Zm0-10.465a3.8,3.8,0,1,0,3.8,3.8A3.8,3.8,0,0,0,54.576,16.126Z"/>
        <path class="cls-3" d="M54.576,67.871A6.667,6.667,0,1,1,61.243,61.2,6.676,6.676,0,0,1,54.576,67.871Zm0-10.465a3.8,3.8,0,1,0,3.8,3.8A3.8,3.8,0,0,0,54.576,57.406Z"/>
        <path class="cls-3" d="M54.576,47.231a6.667,6.667,0,1,1,6.667-6.667A6.675,6.675,0,0,1,54.576,47.231Zm0-10.464a3.8,3.8,0,1,0,3.8,3.8A3.8,3.8,0,0,0,54.576,36.767Z"/>
        <path class="cls-3" d="M34.069,26.591a6.667,6.667,0,1,1,6.668-6.667A6.675,6.675,0,0,1,34.069,26.591Zm0-10.465a3.8,3.8,0,1,0,3.8,3.8A3.8,3.8,0,0,0,34.069,16.126Z"/>
        <path class="cls-3" d="M34.069,67.871A6.667,6.667,0,1,1,40.737,61.2,6.675,6.675,0,0,1,34.069,67.871Zm0-10.465a3.8,3.8,0,1,0,3.8,3.8A3.8,3.8,0,0,0,34.069,57.406Z"/>
        <path class="cls-3" d="M34.069,47.231a6.667,6.667,0,1,1,6.668-6.667A6.674,6.674,0,0,1,34.069,47.231Zm0-10.464a3.8,3.8,0,1,0,3.8,3.8A3.8,3.8,0,0,0,34.069,36.767Z"/>
        <path class="cls-3" d="M84.578,28.471a3.02,3.02,0,0,1-.657-.073l-7.2-1.613a3.647,3.647,0,0,1-2.755-3.443V16.506a3.646,3.646,0,0,1,2.754-3.442l7.2-1.613A2.717,2.717,0,0,1,87.3,14.16V25.688a2.782,2.782,0,0,1-1.019,2.2A2.716,2.716,0,0,1,84.578,28.471Zm-.144-14.194-7.082,1.587a.777.777,0,0,0-.512.642v6.836a.777.777,0,0,0,.514.643l7.08,1.587Z"/>
        <path class="cls-3" d="M85.535,46.087H77.082a3.114,3.114,0,0,1-3.112-3.11V38.151a3.114,3.114,0,0,1,3.112-3.11h8.453a3.113,3.113,0,0,1,3.11,3.11v4.826A3.113,3.113,0,0,1,85.535,46.087Zm-8.453-8.176a.244.244,0,0,0-.242.24v4.826a.244.244,0,0,0,.242.24h8.453a.246.246,0,0,0,.24-.24V38.151a.246.246,0,0,0-.24-.24Z"/>
        <path class="cls-3" d="M84.58,69.751a3.058,3.058,0,0,1-.661-.074l-7.194-1.612a3.644,3.644,0,0,1-2.755-3.442V57.785a3.646,3.646,0,0,1,2.754-3.442l7.2-1.612A2.718,2.718,0,0,1,87.3,55.44V66.968a2.783,2.783,0,0,1-1.02,2.2A2.713,2.713,0,0,1,84.58,69.751Zm-.146-14.194-7.082,1.587a.774.774,0,0,0-.512.641v6.838a.774.774,0,0,0,.512.641l7.082,1.587Z"/>
        <path class="cls-3" d="M11.566,25.447H3.109A3.113,3.113,0,0,1,0,22.338V17.512A3.114,3.114,0,0,1,3.109,14.4h8.457a3.114,3.114,0,0,1,3.109,3.112v4.826A3.113,3.113,0,0,1,11.566,25.447ZM3.109,17.27a.243.243,0,0,0-.239.242v4.826a.246.246,0,0,0,.239.24h8.457a.246.246,0,0,0,.239-.24V17.512a.247.247,0,0,0-.239-.242Z"/>
        <path class="cls-3" d="M11.566,66.728H3.109A3.114,3.114,0,0,1,0,63.617V58.791a3.113,3.113,0,0,1,3.109-3.11h8.457a3.113,3.113,0,0,1,3.109,3.11v4.826A3.114,3.114,0,0,1,11.566,66.728ZM3.109,58.551a.246.246,0,0,0-.239.24v4.826a.243.243,0,0,0,.239.241h8.457a.247.247,0,0,0,.239-.241V58.791a.246.246,0,0,0-.239-.24Z"/>
        <path class="cls-3" d="M4.065,49.111a2.714,2.714,0,0,1-1.707-.587,2.782,2.782,0,0,1-1.019-2.2V34.8A2.781,2.781,0,0,1,2.357,32.6a2.78,2.78,0,0,1,2.367-.514L11.918,33.7a3.644,3.644,0,0,1,2.757,3.443v6.837a3.644,3.644,0,0,1-2.757,3.441L4.724,49.037A3.033,3.033,0,0,1,4.065,49.111Zm.144-14.195v11.3l7.082-1.587a.776.776,0,0,0,.514-.641V37.146a.778.778,0,0,0-.513-.643Z"/>
        <path class="cls-4" d="M69.34,81.127H19.305L16.673,0h55.3ZM22.083,78.258H66.562L69.007,2.87H19.637Z"/>
      </g>
    </g>
  </g>
</svg>
